<svg width="1920" height="800" viewBox="0 0 1920 800" fill="none" xmlns="http://www.w3.org/2000/svg">
    <rect width="1920" height="800" fill="#F0F0F0" />
    <path
        d="M632 440.959L536.482 500V491.241C536.482 485.077 537.665 478.965 539.974 473.201L543.76 463.752C549.448 449.555 551.004 434.176 548.267 419.216L546.205 407.751L526.273 406.149C512.247 405.021 498.152 407.352 485.364 412.915L480.002 415.168C476.7 416.556 472.939 416.591 469.609 415.265C463.787 412.947 460 407.554 460 401.579V383.395L555.993 323.616V300C562.62 306.267 567.621 314.184 569.678 322.831C604.017 340.575 627.027 374.938 630.353 411.808L632 440.959Z"
        fill="#220056" />
    <path
        d="M679.968 500H676.64V320.8H685.344L791.84 486.432V320.8H795.168V500H776.48L679.968 351.52V500ZM927.718 500C916.113 500 908.177 497.781 903.91 493.344C899.985 489.589 898.022 486.347 898.022 483.616V478.24C889.659 493.429 876.262 501.024 857.83 501.024C836.326 501.024 824.123 491.296 821.222 471.84C820.881 469.792 820.71 467.744 820.71 465.696C820.71 463.477 821.051 461.088 821.734 458.528C822.417 455.968 824.379 453.152 827.622 450.08C834.107 443.936 848.358 440.181 870.374 438.816C875.835 438.304 880.87 438.048 885.478 438.048C890.086 438.048 894.267 438.219 898.022 438.56V396.064C897.681 395.893 897.681 395.125 898.022 393.76C898.363 392.224 898.022 390.347 896.998 388.128C896.145 385.739 894.95 383.435 893.414 381.216C891.878 378.997 889.147 377.12 885.222 375.584C881.297 373.877 876.177 373.024 869.862 373.024C863.547 373.024 856.123 374.219 847.59 376.608C839.227 378.827 833.083 381.045 829.158 383.264L828.134 381.472C843.323 374.475 858.769 370.976 874.47 370.976C892.049 370.976 903.654 374.133 909.286 380.448C913.723 385.397 915.942 390.603 915.942 396.064V481.824C915.942 486.773 916.881 490.613 918.758 493.344C920.806 495.904 922.854 497.269 924.902 497.44L927.718 497.952H935.654V500H927.718ZM861.926 498.976C870.971 498.976 879.078 495.904 886.246 489.76C893.585 483.445 897.51 477.387 898.022 471.584V440.608C893.414 440.267 888.721 440.096 883.942 440.096C879.334 440.096 874.726 440.352 870.118 440.864C857.147 442.4 848.699 445.301 844.774 449.568C840.849 453.835 838.886 459.723 838.886 467.232C838.886 468.597 838.971 470.133 839.142 471.84C840.678 489.931 848.273 498.976 861.926 498.976ZM1036.45 373.536L1037.99 372C1038.67 372.341 1039.53 373.365 1040.55 375.072C1041.74 376.779 1042.43 378.315 1042.6 379.68C1042.94 381.045 1043.11 382.325 1043.11 383.52C1043.11 388.128 1042.09 392.821 1040.04 397.6L990.886 500H988.326L940.71 372H958.63L997.798 477.984L1037.48 397.6C1039.53 394.016 1040.55 389.749 1040.55 384.8C1040.55 379.851 1039.18 376.096 1036.45 373.536ZM1162.97 500C1151.36 500 1143.43 497.781 1139.16 493.344C1135.23 489.589 1133.27 486.347 1133.27 483.616V478.24C1124.91 493.429 1111.51 501.024 1093.08 501.024C1071.58 501.024 1059.37 491.296 1056.47 471.84C1056.13 469.792 1055.96 467.744 1055.96 465.696C1055.96 463.477 1056.3 461.088 1056.98 458.528C1057.67 455.968 1059.63 453.152 1062.87 450.08C1069.36 443.936 1083.61 440.181 1105.62 438.816C1111.09 438.304 1116.12 438.048 1120.73 438.048C1125.34 438.048 1129.52 438.219 1133.27 438.56V396.064C1132.93 395.893 1132.93 395.125 1133.27 393.76C1133.61 392.224 1133.27 390.347 1132.25 388.128C1131.39 385.739 1130.2 383.435 1128.66 381.216C1127.13 378.997 1124.4 377.12 1120.47 375.584C1116.55 373.877 1111.43 373.024 1105.11 373.024C1098.8 373.024 1091.37 374.219 1082.84 376.608C1074.48 378.827 1068.33 381.045 1064.41 383.264L1063.38 381.472C1078.57 374.475 1094.02 370.976 1109.72 370.976C1127.3 370.976 1138.9 374.133 1144.54 380.448C1148.97 385.397 1151.19 390.603 1151.19 396.064V481.824C1151.19 486.773 1152.13 490.613 1154.01 493.344C1156.06 495.904 1158.1 497.269 1160.15 497.44L1162.97 497.952H1170.9V500H1162.97ZM1097.18 498.976C1106.22 498.976 1114.33 495.904 1121.5 489.76C1128.83 483.445 1132.76 477.387 1133.27 471.584V440.608C1128.66 440.267 1123.97 440.096 1119.19 440.096C1114.58 440.096 1109.98 440.352 1105.37 440.864C1092.4 442.4 1083.95 445.301 1080.02 449.568C1076.1 453.835 1074.14 459.723 1074.14 467.232C1074.14 468.597 1074.22 470.133 1074.39 471.84C1075.93 489.931 1083.52 498.976 1097.18 498.976ZM1291.23 500C1284.23 500 1278.86 498.464 1275.1 495.392C1271.52 492.32 1269.64 489.248 1269.47 486.176L1269.21 481.824V401.44C1269.21 387.957 1265.72 379.339 1258.72 375.584C1255.13 373.877 1250.7 373.024 1245.41 373.024C1234.48 373.024 1224.67 377.376 1215.97 386.08C1207.26 394.613 1202.91 402.293 1202.91 409.12V500H1184.99V372H1202.91V401.184C1205.81 393.845 1211.19 387.019 1219.04 380.704C1226.89 374.219 1235.51 370.976 1244.89 370.976C1254.28 370.976 1261.88 371.915 1267.68 373.792C1273.65 375.499 1278 377.973 1280.73 381.216C1285 386.507 1287.13 393.333 1287.13 401.696V481.824C1287.13 486.773 1288.07 490.613 1289.95 493.344C1292 495.904 1294.05 497.269 1296.09 497.44L1298.91 497.952H1306.85V500H1291.23ZM1317.24 440.608C1317.24 418.421 1322.62 401.269 1333.37 389.152C1344.12 377.035 1360.25 370.976 1381.75 370.976C1391.82 370.976 1401.98 373.536 1412.22 378.656V308.256H1430.14V481.824C1430.14 486.773 1431.07 490.613 1432.95 493.344C1435 495.904 1437.05 497.269 1439.1 497.44L1441.91 497.952H1449.85V500H1434.23C1427.23 500 1421.86 498.464 1418.1 495.392C1414.52 492.32 1412.64 489.248 1412.47 486.176L1412.22 481.824V477.728C1408.97 483.701 1403.6 488.992 1396.09 493.6C1388.58 498.208 1379.7 500.512 1369.46 500.512C1334.65 499.659 1317.24 479.691 1317.24 440.608ZM1369.72 498.464C1381.15 498.464 1390.97 495.392 1399.16 489.248C1407.35 483.104 1411.7 477.045 1412.22 471.072V380.96C1400.1 375.669 1389.69 373.024 1380.98 373.024C1365.79 373.024 1354.36 378.997 1346.68 390.944C1339 402.72 1335.16 419.275 1335.16 440.608C1335.16 479.179 1346.68 498.464 1369.72 498.464Z"
        fill="#220056" />
    <path
        d="M44.9965 754.02L45.6205 755.916C45.0845 756.084 44.5125 756.188 43.9045 756.228C43.2965 756.268 42.6365 756.288 41.9245 756.288C42.6525 756.624 43.2005 757.06 43.5685 757.596C43.9365 758.124 44.1205 758.748 44.1205 759.468C44.1205 760.3 43.9325 761.04 43.5565 761.688C43.1805 762.336 42.6365 762.844 41.9245 763.212C41.2205 763.58 40.3685 763.764 39.3685 763.764C38.9445 763.764 38.5885 763.744 38.3005 763.704C38.0205 763.664 37.7485 763.604 37.4845 763.524C37.2925 763.652 37.1325 763.828 37.0045 764.052C36.8845 764.276 36.8245 764.508 36.8245 764.748C36.8245 765.052 36.9445 765.304 37.1845 765.504C37.4245 765.704 37.8685 765.804 38.5165 765.804H40.7965C41.6445 765.804 42.4045 765.956 43.0765 766.26C43.7565 766.564 44.2885 766.972 44.6725 767.484C45.0645 767.996 45.2605 768.58 45.2605 769.236C45.2605 770.476 44.7325 771.428 43.6765 772.092C42.6285 772.756 41.1445 773.088 39.2245 773.088C37.8805 773.088 36.8205 772.948 36.0445 772.668C35.2685 772.396 34.7125 771.976 34.3765 771.408C34.0485 770.848 33.8845 770.14 33.8845 769.284H35.7085C35.7085 769.772 35.8045 770.176 35.9965 770.496C36.1885 770.816 36.5365 771.052 37.0405 771.204C37.5445 771.364 38.2685 771.444 39.2125 771.444C40.1405 771.444 40.8965 771.364 41.4805 771.204C42.0725 771.052 42.5085 770.82 42.7885 770.508C43.0765 770.204 43.2205 769.824 43.2205 769.368C43.2205 768.768 42.9485 768.316 42.4045 768.012C41.8605 767.708 41.1805 767.556 40.3645 767.556H38.1085C37.0205 767.556 36.2165 767.316 35.6965 766.836C35.1845 766.356 34.9285 765.804 34.9285 765.18C34.9285 764.772 35.0445 764.376 35.2765 763.992C35.5165 763.608 35.8645 763.268 36.3205 762.972C35.5925 762.588 35.0565 762.112 34.7125 761.544C34.3685 760.976 34.1965 760.288 34.1965 759.48C34.1965 758.624 34.4085 757.868 34.8325 757.212C35.2565 756.548 35.8485 756.028 36.6085 755.652C37.3685 755.276 38.2445 755.088 39.2365 755.088C40.3005 755.08 41.1645 755.036 41.8285 754.956C42.4925 754.868 43.0605 754.744 43.5325 754.584C44.0125 754.424 44.5005 754.236 44.9965 754.02ZM39.2365 756.564C38.2205 756.564 37.4685 756.84 36.9805 757.392C36.5005 757.936 36.2605 758.632 36.2605 759.48C36.2605 760.336 36.5085 761.04 37.0045 761.592C37.5005 762.144 38.2605 762.42 39.2845 762.42C40.1805 762.42 40.8605 762.16 41.3245 761.64C41.7965 761.12 42.0325 760.396 42.0325 759.468C42.0325 758.516 41.7965 757.796 41.3245 757.308C40.8605 756.812 40.1645 756.564 39.2365 756.564ZM55.5111 755.364V766.404H59.0751V768H49.5951V766.404H53.4951V756.96H49.7151V755.364H55.5111ZM53.9031 749.448C54.3511 749.448 54.7071 749.584 54.9711 749.856C55.2431 750.128 55.3791 750.46 55.3791 750.852C55.3791 751.26 55.2431 751.604 54.9711 751.884C54.7071 752.156 54.3511 752.292 53.9031 752.292C53.4791 752.292 53.1311 752.156 52.8591 751.884C52.5871 751.604 52.4511 751.26 52.4511 750.852C52.4511 750.46 52.5871 750.128 52.8591 749.856C53.1311 749.584 53.4791 749.448 53.9031 749.448ZM73.5378 767.364C73.1058 767.652 72.5818 767.876 71.9658 768.036C71.3498 768.196 70.7458 768.276 70.1538 768.276C68.7938 768.276 67.7458 767.92 67.0098 767.208C66.2738 766.496 65.9058 765.58 65.9058 764.46V756.924H63.0018V755.364H65.9058V752.496L67.9218 752.256V755.364H72.2898L72.0498 756.924H67.9218V764.436C67.9218 765.14 68.1058 765.676 68.4738 766.044C68.8498 766.412 69.4698 766.596 70.3338 766.596C70.8058 766.596 71.2418 766.54 71.6418 766.428C72.0418 766.316 72.4138 766.172 72.7578 765.996L73.5378 767.364ZM79.9124 750.084V757.092C80.4084 756.428 81.0164 755.932 81.7364 755.604C82.4644 755.268 83.2004 755.1 83.9444 755.1C85.1764 755.1 86.0764 755.428 86.6444 756.084C87.2124 756.74 87.4964 757.652 87.4964 758.82V768H85.4804V758.868C85.4804 758.108 85.3044 757.556 84.9524 757.212C84.6004 756.86 84.0484 756.684 83.2964 756.684C82.8164 756.684 82.3604 756.792 81.9284 757.008C81.4964 757.224 81.1084 757.492 80.7644 757.812C80.4204 758.132 80.1364 758.46 79.9124 758.796V768H77.8964V750.3L79.9124 750.084ZM94.303 755.364V764.316C94.303 765.148 94.475 765.748 94.819 766.116C95.163 766.484 95.699 766.668 96.427 766.668C97.123 766.668 97.779 766.472 98.395 766.08C99.019 765.68 99.503 765.208 99.847 764.664V755.364H101.863V768H100.147L99.979 766.296C99.483 766.936 98.871 767.428 98.143 767.772C97.415 768.108 96.679 768.276 95.935 768.276C94.711 768.276 93.795 767.952 93.187 767.304C92.587 766.648 92.287 765.732 92.287 764.556V755.364H94.303ZM108.694 757.008C109.158 756.4 109.69 755.932 110.29 755.604C110.898 755.268 111.566 755.1 112.294 755.1C113.422 755.1 114.334 755.372 115.03 755.916C115.726 756.46 116.234 757.228 116.554 758.22C116.874 759.204 117.034 760.356 117.034 761.676C117.034 762.948 116.842 764.084 116.458 765.084C116.074 766.076 115.51 766.856 114.766 767.424C114.03 767.992 113.118 768.276 112.03 768.276C110.566 768.276 109.418 767.748 108.586 766.692L108.442 768H106.678V750.276L108.694 750.024V757.008ZM111.55 766.644C112.606 766.644 113.418 766.236 113.986 765.42C114.554 764.604 114.838 763.352 114.838 761.664C114.838 760.56 114.726 759.644 114.502 758.916C114.278 758.18 113.942 757.632 113.494 757.272C113.054 756.904 112.51 756.72 111.862 756.72C111.158 756.72 110.538 756.932 110.002 757.356C109.474 757.772 109.038 758.236 108.694 758.748V765.012C109.022 765.508 109.434 765.904 109.93 766.2C110.434 766.496 110.974 766.644 111.55 766.644ZM123.732 766.152C123.732 765.76 123.824 765.408 124.008 765.096C124.192 764.776 124.44 764.524 124.752 764.34C125.072 764.148 125.432 764.052 125.832 764.052C126.24 764.052 126.604 764.148 126.924 764.34C127.244 764.524 127.496 764.776 127.68 765.096C127.864 765.408 127.956 765.76 127.956 766.152C127.956 766.544 127.864 766.904 127.68 767.232C127.496 767.552 127.244 767.808 126.924 768C126.604 768.184 126.24 768.276 125.832 768.276C125.432 768.276 125.072 768.184 124.752 768C124.44 767.808 124.192 767.552 124.008 767.232C123.824 766.904 123.732 766.544 123.732 766.152ZM141.171 766.536C141.803 766.536 142.391 766.432 142.935 766.224C143.487 766.016 143.995 765.752 144.459 765.432L145.443 766.752C144.891 767.224 144.227 767.596 143.451 767.868C142.675 768.14 141.915 768.276 141.171 768.276C139.915 768.276 138.843 768.008 137.955 767.472C137.075 766.928 136.403 766.168 135.939 765.192C135.475 764.208 135.243 763.056 135.243 761.736C135.243 760.472 135.475 759.34 135.939 758.34C136.411 757.332 137.087 756.54 137.967 755.964C138.855 755.388 139.931 755.1 141.195 755.1C142.003 755.1 142.759 755.224 143.463 755.472C144.175 755.712 144.827 756.076 145.419 756.564L144.435 757.908C143.899 757.532 143.359 757.252 142.815 757.068C142.279 756.876 141.731 756.78 141.171 756.78C140.083 756.78 139.187 757.188 138.483 758.004C137.779 758.82 137.427 760.064 137.427 761.736C137.427 762.856 137.587 763.772 137.907 764.484C138.235 765.188 138.679 765.708 139.239 766.044C139.807 766.372 140.451 766.536 141.171 766.536ZM154.662 755.1C155.854 755.1 156.85 755.372 157.65 755.916C158.458 756.452 159.062 757.212 159.462 758.196C159.87 759.18 160.074 760.34 160.074 761.676C160.074 762.964 159.866 764.104 159.45 765.096C159.034 766.088 158.422 766.868 157.614 767.436C156.814 767.996 155.822 768.276 154.638 768.276C153.454 768.276 152.458 768.004 151.65 767.46C150.842 766.916 150.23 766.152 149.814 765.168C149.406 764.176 149.201 763.02 149.201 761.7C149.201 760.396 149.41 759.248 149.826 758.256C150.242 757.264 150.854 756.492 151.662 755.94C152.478 755.38 153.478 755.1 154.662 755.1ZM154.662 756.744C153.574 756.744 152.75 757.148 152.19 757.956C151.638 758.756 151.362 760.004 151.362 761.7C151.362 763.364 151.634 764.6 152.178 765.408C152.73 766.216 153.55 766.62 154.638 766.62C155.726 766.62 156.542 766.216 157.086 765.408C157.638 764.6 157.914 763.356 157.914 761.676C157.914 759.996 157.642 758.756 157.098 757.956C156.554 757.148 155.742 756.744 154.662 756.744ZM172.568 755.1C172.976 755.1 173.364 755.188 173.732 755.364C174.108 755.54 174.416 755.88 174.656 756.384C174.896 756.888 175.016 757.624 175.016 758.592V768H173.144V758.916C173.144 758.124 173.096 757.552 173 757.2C172.904 756.848 172.628 756.672 172.172 756.672C171.796 756.672 171.42 756.792 171.044 757.032C170.676 757.264 170.316 757.648 169.964 758.184V768H168.08V758.916C168.08 758.124 168.032 757.552 167.936 757.2C167.84 756.848 167.564 756.672 167.108 756.672C166.716 756.672 166.336 756.792 165.968 757.032C165.608 757.264 165.252 757.648 164.9 758.184V768H163.04V755.364H164.624L164.744 756.828C165.088 756.34 165.472 755.932 165.896 755.604C166.328 755.268 166.86 755.1 167.492 755.1C167.972 755.1 168.424 755.216 168.848 755.448C169.272 755.672 169.584 756.112 169.784 756.768C170.128 756.272 170.516 755.872 170.948 755.568C171.38 755.256 171.92 755.1 172.568 755.1ZM179.111 770.472L177.479 769.752L187.751 748.572L189.359 749.364L179.111 770.472ZM200.929 768V760.164H194.689V768H192.613V751.476H194.689V758.46H200.929V751.476H203.005V768H200.929ZM216.46 765.24C216.46 765.744 216.544 766.112 216.712 766.344C216.88 766.576 217.14 766.748 217.492 766.86L217 768.276C216.456 768.204 215.98 768.032 215.572 767.76C215.164 767.48 214.868 767.06 214.684 766.5C214.228 767.084 213.66 767.528 212.98 767.832C212.3 768.128 211.548 768.276 210.724 768.276C209.46 768.276 208.464 767.92 207.736 767.208C207.008 766.496 206.644 765.552 206.644 764.376C206.644 763.072 207.152 762.072 208.168 761.376C209.184 760.68 210.652 760.332 212.572 760.332H214.432V759.276C214.432 758.364 214.164 757.72 213.628 757.344C213.1 756.96 212.364 756.768 211.42 756.768C211.004 756.768 210.516 756.82 209.956 756.924C209.396 757.02 208.788 757.184 208.132 757.416L207.604 755.892C208.38 755.604 209.108 755.4 209.788 755.28C210.468 755.16 211.116 755.1 211.732 755.1C213.308 755.1 214.488 755.468 215.272 756.204C216.064 756.932 216.46 757.924 216.46 759.18V765.24ZM211.24 766.74C211.864 766.74 212.46 766.584 213.028 766.272C213.596 765.952 214.064 765.512 214.432 764.952V761.7H212.608C211.216 761.7 210.232 761.94 209.656 762.42C209.088 762.9 208.804 763.544 208.804 764.352C208.804 765.136 209.004 765.732 209.404 766.14C209.812 766.54 210.424 766.74 211.24 766.74ZM231.163 768H228.307L226.675 758.724L224.899 768H222.115L219.811 755.364H221.875L223.483 766.752L225.499 756.972H227.887L229.795 766.752L231.403 755.364H233.371L231.163 768ZM244.521 755.1C244.929 755.1 245.317 755.188 245.685 755.364C246.061 755.54 246.369 755.88 246.609 756.384C246.849 756.888 246.969 757.624 246.969 758.592V768H245.097V758.916C245.097 758.124 245.049 757.552 244.953 757.2C244.857 756.848 244.581 756.672 244.125 756.672C243.749 756.672 243.373 756.792 242.997 757.032C242.629 757.264 242.269 757.648 241.917 758.184V768H240.033V758.916C240.033 758.124 239.985 757.552 239.889 757.2C239.793 756.848 239.517 756.672 239.061 756.672C238.669 756.672 238.289 756.792 237.921 757.032C237.561 757.264 237.205 757.648 236.853 758.184V768H234.993V755.364H236.577L236.697 756.828C237.041 756.34 237.425 755.932 237.849 755.604C238.281 755.268 238.813 755.1 239.445 755.1C239.925 755.1 240.377 755.216 240.801 755.448C241.225 755.672 241.537 756.112 241.737 756.768C242.081 756.272 242.469 755.872 242.901 755.568C243.333 755.256 243.873 755.1 244.521 755.1ZM252.168 762.396C252.208 763.372 252.396 764.172 252.732 764.796C253.068 765.412 253.512 765.868 254.064 766.164C254.616 766.452 255.216 766.596 255.864 766.596C256.512 766.596 257.096 766.5 257.616 766.308C258.144 766.116 258.684 765.832 259.236 765.456L260.184 766.788C259.592 767.252 258.916 767.616 258.156 767.88C257.404 768.144 256.632 768.276 255.84 768.276C254.616 768.276 253.572 768 252.708 767.448C251.844 766.896 251.184 766.128 250.728 765.144C250.28 764.152 250.056 763.004 250.056 761.7C250.056 760.42 250.284 759.284 250.74 758.292C251.196 757.3 251.836 756.52 252.66 755.952C253.484 755.384 254.456 755.1 255.576 755.1C256.64 755.1 257.556 755.352 258.324 755.856C259.092 756.352 259.68 757.064 260.088 757.992C260.504 758.912 260.712 760.012 260.712 761.292C260.712 761.508 260.708 761.712 260.7 761.904C260.692 762.088 260.68 762.252 260.664 762.396H252.168ZM255.6 756.756C254.664 756.756 253.88 757.088 253.248 757.752C252.624 758.416 252.268 759.444 252.18 760.836H258.768C258.744 759.484 258.448 758.468 257.88 757.788C257.312 757.1 256.552 756.756 255.6 756.756ZM266.199 768H263.895L268.562 761.328L264.471 755.364H266.859L269.787 760.068L272.751 755.364H275.055L270.975 761.244L275.631 768H273.159L269.703 762.576L266.199 768ZM279.845 770.472L278.213 769.752L288.485 748.572L290.093 749.364L279.845 770.472ZM293.756 768V755.364H295.472L295.628 757.116C296.14 756.468 296.78 755.972 297.548 755.628C298.324 755.276 299.076 755.1 299.804 755.1C301.044 755.1 301.944 755.428 302.504 756.084C303.072 756.74 303.356 757.652 303.356 758.82V768H301.34V760.308C301.34 759.444 301.292 758.748 301.196 758.22C301.1 757.684 300.9 757.296 300.596 757.056C300.292 756.808 299.82 756.684 299.18 756.684C298.684 756.684 298.216 756.792 297.776 757.008C297.344 757.224 296.956 757.496 296.612 757.824C296.276 758.144 295.996 758.468 295.772 758.796V768H293.756ZM317.194 765.24C317.194 765.744 317.278 766.112 317.446 766.344C317.614 766.576 317.874 766.748 318.226 766.86L317.734 768.276C317.19 768.204 316.714 768.032 316.306 767.76C315.898 767.48 315.602 767.06 315.418 766.5C314.962 767.084 314.394 767.528 313.714 767.832C313.034 768.128 312.282 768.276 311.458 768.276C310.194 768.276 309.198 767.92 308.47 767.208C307.742 766.496 307.378 765.552 307.378 764.376C307.378 763.072 307.886 762.072 308.902 761.376C309.918 760.68 311.386 760.332 313.306 760.332H315.166V759.276C315.166 758.364 314.898 757.72 314.362 757.344C313.834 756.96 313.098 756.768 312.154 756.768C311.738 756.768 311.25 756.82 310.69 756.924C310.13 757.02 309.522 757.184 308.866 757.416L308.338 755.892C309.114 755.604 309.842 755.4 310.522 755.28C311.202 755.16 311.85 755.1 312.466 755.1C314.042 755.1 315.222 755.468 316.006 756.204C316.798 756.932 317.194 757.924 317.194 759.18V765.24ZM311.974 766.74C312.598 766.74 313.194 766.584 313.762 766.272C314.33 765.952 314.798 765.512 315.166 764.952V761.7H313.342C311.95 761.7 310.966 761.94 310.39 762.42C309.822 762.9 309.538 763.544 309.538 764.352C309.538 765.136 309.738 765.732 310.138 766.14C310.546 766.54 311.158 766.74 311.974 766.74ZM333.073 755.364L328.477 768H326.137L321.577 755.364H323.713L327.373 766.164L330.985 755.364H333.073ZM345.976 765.24C345.976 765.744 346.06 766.112 346.228 766.344C346.396 766.576 346.656 766.748 347.008 766.86L346.516 768.276C345.972 768.204 345.496 768.032 345.088 767.76C344.68 767.48 344.384 767.06 344.2 766.5C343.744 767.084 343.176 767.528 342.496 767.832C341.816 768.128 341.064 768.276 340.24 768.276C338.976 768.276 337.98 767.92 337.252 767.208C336.524 766.496 336.16 765.552 336.16 764.376C336.16 763.072 336.668 762.072 337.684 761.376C338.7 760.68 340.168 760.332 342.088 760.332H343.948V759.276C343.948 758.364 343.68 757.72 343.144 757.344C342.616 756.96 341.88 756.768 340.936 756.768C340.52 756.768 340.032 756.82 339.472 756.924C338.912 757.02 338.304 757.184 337.648 757.416L337.12 755.892C337.896 755.604 338.624 755.4 339.304 755.28C339.984 755.16 340.632 755.1 341.248 755.1C342.824 755.1 344.004 755.468 344.788 756.204C345.58 756.932 345.976 757.924 345.976 759.18V765.24ZM340.756 766.74C341.38 766.74 341.976 766.584 342.544 766.272C343.112 765.952 343.58 765.512 343.948 764.952V761.7H342.124C340.732 761.7 339.748 761.94 339.172 762.42C338.604 762.9 338.32 763.544 338.32 764.352C338.32 765.136 338.52 765.732 338.92 766.14C339.328 766.54 339.94 766.74 340.756 766.74ZM351.318 768V755.364H353.034L353.19 757.116C353.702 756.468 354.342 755.972 355.11 755.628C355.886 755.276 356.638 755.1 357.366 755.1C358.606 755.1 359.506 755.428 360.066 756.084C360.634 756.74 360.918 757.652 360.918 758.82V768H358.902V760.308C358.902 759.444 358.854 758.748 358.758 758.22C358.662 757.684 358.462 757.296 358.158 757.056C357.854 756.808 357.382 756.684 356.742 756.684C356.246 756.684 355.778 756.792 355.338 757.008C354.906 757.224 354.518 757.496 354.174 757.824C353.838 758.144 353.558 758.468 353.334 758.796V768H351.318ZM373.269 750.024L375.285 750.276V768H373.521L373.329 766.332C372.857 767.004 372.313 767.496 371.697 767.808C371.089 768.12 370.437 768.276 369.741 768.276C368.645 768.276 367.741 768 367.029 767.448C366.317 766.896 365.789 766.128 365.445 765.144C365.101 764.152 364.929 763.004 364.929 761.7C364.929 760.436 365.125 759.308 365.517 758.316C365.909 757.316 366.473 756.532 367.209 755.964C367.953 755.388 368.845 755.1 369.885 755.1C370.613 755.1 371.253 755.228 371.805 755.484C372.357 755.732 372.845 756.1 373.269 756.588V750.024ZM370.413 756.72C369.357 756.72 368.545 757.132 367.977 757.956C367.409 758.78 367.125 760.028 367.125 761.7C367.125 762.788 367.241 763.7 367.473 764.436C367.705 765.172 368.045 765.724 368.493 766.092C368.949 766.46 369.505 766.644 370.161 766.644C370.881 766.644 371.493 766.44 371.997 766.032C372.509 765.624 372.933 765.164 373.269 764.652V758.34C372.925 757.828 372.509 757.432 372.021 757.152C371.533 756.864 370.997 756.72 370.413 756.72Z"
        fill="black" fill-opacity="0.25" />
    <path
        d="M1558.07 755.1C1559.19 755.1 1560.08 755.372 1560.75 755.916C1561.42 756.46 1561.9 757.228 1562.2 758.22C1562.5 759.204 1562.64 760.356 1562.64 761.676C1562.64 762.948 1562.46 764.084 1562.1 765.084C1561.75 766.076 1561.22 766.856 1560.5 767.424C1559.78 767.992 1558.87 768.276 1557.77 768.276C1556.39 768.276 1555.28 767.788 1554.44 766.812V772.836L1552.42 773.088V755.364H1554.14L1554.3 757.128C1554.77 756.48 1555.32 755.98 1555.96 755.628C1556.61 755.276 1557.31 755.1 1558.07 755.1ZM1557.59 756.72C1556.9 756.72 1556.28 756.932 1555.74 757.356C1555.22 757.772 1554.78 758.236 1554.44 758.748V765.012C1554.76 765.5 1555.18 765.888 1555.67 766.176C1556.18 766.456 1556.73 766.596 1557.33 766.596C1558.38 766.596 1559.16 766.196 1559.69 765.396C1560.22 764.596 1560.48 763.352 1560.48 761.664C1560.48 760.56 1560.38 759.644 1560.17 758.916C1559.96 758.18 1559.65 757.632 1559.22 757.272C1558.8 756.904 1558.26 756.72 1557.59 756.72ZM1568.83 755.364V764.316C1568.83 765.148 1569 765.748 1569.34 766.116C1569.69 766.484 1570.22 766.668 1570.95 766.668C1571.65 766.668 1572.3 766.472 1572.92 766.08C1573.54 765.68 1574.03 765.208 1574.37 764.664V755.364H1576.39V768H1574.67L1574.5 766.296C1574.01 766.936 1573.39 767.428 1572.67 767.772C1571.94 768.108 1571.2 768.276 1570.46 768.276C1569.23 768.276 1568.32 767.952 1567.71 767.304C1567.11 766.648 1566.81 765.732 1566.81 764.556V755.364H1568.83ZM1583.22 757.008C1583.68 756.4 1584.21 755.932 1584.81 755.604C1585.42 755.268 1586.09 755.1 1586.82 755.1C1587.95 755.1 1588.86 755.372 1589.55 755.916C1590.25 756.46 1590.76 757.228 1591.08 758.22C1591.4 759.204 1591.56 760.356 1591.56 761.676C1591.56 762.948 1591.37 764.084 1590.98 765.084C1590.6 766.076 1590.03 766.856 1589.29 767.424C1588.55 767.992 1587.64 768.276 1586.55 768.276C1585.09 768.276 1583.94 767.748 1583.11 766.692L1582.97 768H1581.2V750.276L1583.22 750.024V757.008ZM1586.07 766.644C1587.13 766.644 1587.94 766.236 1588.51 765.42C1589.08 764.604 1589.36 763.352 1589.36 761.664C1589.36 760.56 1589.25 759.644 1589.03 758.916C1588.8 758.18 1588.47 757.632 1588.02 757.272C1587.58 756.904 1587.03 756.72 1586.39 756.72C1585.68 756.72 1585.06 756.932 1584.53 757.356C1584 757.772 1583.56 758.236 1583.22 758.748V765.012C1583.55 765.508 1583.96 765.904 1584.45 766.2C1584.96 766.496 1585.5 766.644 1586.07 766.644ZM1598.26 766.152C1598.26 765.76 1598.35 765.408 1598.53 765.096C1598.72 764.776 1598.96 764.524 1599.28 764.34C1599.6 764.148 1599.96 764.052 1600.36 764.052C1600.76 764.052 1601.13 764.148 1601.45 764.34C1601.77 764.524 1602.02 764.776 1602.2 765.096C1602.39 765.408 1602.48 765.76 1602.48 766.152C1602.48 766.544 1602.39 766.904 1602.2 767.232C1602.02 767.552 1601.77 767.808 1601.45 768C1601.13 768.184 1600.76 768.276 1600.36 768.276C1599.96 768.276 1599.6 768.184 1599.28 768C1598.96 767.808 1598.72 767.552 1598.53 767.232C1598.35 766.904 1598.26 766.544 1598.26 766.152ZM1617.54 750.024L1619.56 750.276V768H1617.79L1617.6 766.332C1617.13 767.004 1616.59 767.496 1615.97 767.808C1615.36 768.12 1614.71 768.276 1614.01 768.276C1612.92 768.276 1612.01 768 1611.3 767.448C1610.59 766.896 1610.06 766.128 1609.72 765.144C1609.37 764.152 1609.2 763.004 1609.2 761.7C1609.2 760.436 1609.4 759.308 1609.79 758.316C1610.18 757.316 1610.75 756.532 1611.48 755.964C1612.23 755.388 1613.12 755.1 1614.16 755.1C1614.89 755.1 1615.53 755.228 1616.08 755.484C1616.63 755.732 1617.12 756.1 1617.54 756.588V750.024ZM1614.69 756.72C1613.63 756.72 1612.82 757.132 1612.25 757.956C1611.68 758.78 1611.4 760.028 1611.4 761.7C1611.4 762.788 1611.51 763.7 1611.75 764.436C1611.98 765.172 1612.32 765.724 1612.77 766.092C1613.22 766.46 1613.78 766.644 1614.43 766.644C1615.15 766.644 1615.77 766.44 1616.27 766.032C1616.78 765.624 1617.21 765.164 1617.54 764.652V758.34C1617.2 757.828 1616.78 757.432 1616.29 757.152C1615.81 756.864 1615.27 756.72 1614.69 756.72ZM1625.96 762.396C1626 763.372 1626.18 764.172 1626.52 764.796C1626.86 765.412 1627.3 765.868 1627.85 766.164C1628.4 766.452 1629 766.596 1629.65 766.596C1630.3 766.596 1630.88 766.5 1631.4 766.308C1631.93 766.116 1632.47 765.832 1633.02 765.456L1633.97 766.788C1633.38 767.252 1632.7 767.616 1631.94 767.88C1631.19 768.144 1630.42 768.276 1629.63 768.276C1628.4 768.276 1627.36 768 1626.5 767.448C1625.63 766.896 1624.97 766.128 1624.52 765.144C1624.07 764.152 1623.84 763.004 1623.84 761.7C1623.84 760.42 1624.07 759.284 1624.53 758.292C1624.98 757.3 1625.62 756.52 1626.45 755.952C1627.27 755.384 1628.24 755.1 1629.36 755.1C1630.43 755.1 1631.34 755.352 1632.11 755.856C1632.88 756.352 1633.47 757.064 1633.88 757.992C1634.29 758.912 1634.5 760.012 1634.5 761.292C1634.5 761.508 1634.5 761.712 1634.49 761.904C1634.48 762.088 1634.47 762.252 1634.45 762.396H1625.96ZM1629.39 756.756C1628.45 756.756 1627.67 757.088 1627.04 757.752C1626.41 758.416 1626.06 759.444 1625.97 760.836H1632.56C1632.53 759.484 1632.24 758.468 1631.67 757.788C1631.1 757.1 1630.34 756.756 1629.39 756.756ZM1649.3 755.364L1644.7 768H1642.36L1637.8 755.364H1639.94L1643.6 766.164L1647.21 755.364H1649.3ZM1653.63 770.472L1652 769.752L1662.27 748.572L1663.88 749.364L1653.63 770.472ZM1673.2 755.1C1674.32 755.1 1675.21 755.372 1675.87 755.916C1676.54 756.46 1677.03 757.228 1677.32 758.22C1677.62 759.204 1677.77 760.356 1677.77 761.676C1677.77 762.948 1677.59 764.084 1677.23 765.084C1676.88 766.076 1676.34 766.856 1675.62 767.424C1674.9 767.992 1673.99 768.276 1672.9 768.276C1671.51 768.276 1670.4 767.788 1669.56 766.812V772.836L1667.54 773.088V755.364H1669.26L1669.43 757.128C1669.89 756.48 1670.44 755.98 1671.08 755.628C1671.73 755.276 1672.44 755.1 1673.2 755.1ZM1672.72 756.72C1672.02 756.72 1671.4 756.932 1670.87 757.356C1670.34 757.772 1669.9 758.236 1669.56 758.748V765.012C1669.89 765.5 1670.3 765.888 1670.8 766.176C1671.3 766.456 1671.85 766.596 1672.45 766.596C1673.5 766.596 1674.29 766.196 1674.82 765.396C1675.34 764.596 1675.61 763.352 1675.61 761.664C1675.61 760.56 1675.5 759.644 1675.3 758.916C1675.09 758.18 1674.77 757.632 1674.35 757.272C1673.92 756.904 1673.38 756.72 1672.72 756.72ZM1690.98 765.24C1690.98 765.744 1691.07 766.112 1691.24 766.344C1691.4 766.576 1691.66 766.748 1692.02 766.86L1691.52 768.276C1690.98 768.204 1690.5 768.032 1690.1 767.76C1689.69 767.48 1689.39 767.06 1689.21 766.5C1688.75 767.084 1688.18 767.528 1687.5 767.832C1686.82 768.128 1686.07 768.276 1685.25 768.276C1683.98 768.276 1682.99 767.92 1682.26 767.208C1681.53 766.496 1681.17 765.552 1681.17 764.376C1681.17 763.072 1681.68 762.072 1682.69 761.376C1683.71 760.68 1685.18 760.332 1687.1 760.332H1688.96V759.276C1688.96 758.364 1688.69 757.72 1688.15 757.344C1687.62 756.96 1686.89 756.768 1685.94 756.768C1685.53 756.768 1685.04 756.82 1684.48 756.924C1683.92 757.02 1683.31 757.184 1682.66 757.416L1682.13 755.892C1682.9 755.604 1683.63 755.4 1684.31 755.28C1684.99 755.16 1685.64 755.1 1686.26 755.1C1687.83 755.1 1689.01 755.468 1689.8 756.204C1690.59 756.932 1690.98 757.924 1690.98 759.18V765.24ZM1685.76 766.74C1686.39 766.74 1686.98 766.584 1687.55 766.272C1688.12 765.952 1688.59 765.512 1688.96 764.952V761.7H1687.13C1685.74 761.7 1684.76 761.94 1684.18 762.42C1683.61 762.9 1683.33 763.544 1683.33 764.352C1683.33 765.136 1683.53 765.732 1683.93 766.14C1684.34 766.54 1684.95 766.74 1685.76 766.74ZM1702.04 766.536C1702.67 766.536 1703.26 766.432 1703.8 766.224C1704.35 766.016 1704.86 765.752 1705.33 765.432L1706.31 766.752C1705.76 767.224 1705.09 767.596 1704.32 767.868C1703.54 768.14 1702.78 768.276 1702.04 768.276C1700.78 768.276 1699.71 768.008 1698.82 767.472C1697.94 766.928 1697.27 766.168 1696.81 765.192C1696.34 764.208 1696.11 763.056 1696.11 761.736C1696.11 760.472 1696.34 759.34 1696.81 758.34C1697.28 757.332 1697.95 756.54 1698.83 755.964C1699.72 755.388 1700.8 755.1 1702.06 755.1C1702.87 755.1 1703.63 755.224 1704.33 755.472C1705.04 755.712 1705.69 756.076 1706.29 756.564L1705.3 757.908C1704.77 757.532 1704.23 757.252 1703.68 757.068C1703.15 756.876 1702.6 756.78 1702.04 756.78C1700.95 756.78 1700.05 757.188 1699.35 758.004C1698.65 758.82 1698.29 760.064 1698.29 761.736C1698.29 762.856 1698.45 763.772 1698.77 764.484C1699.1 765.188 1699.55 765.708 1700.11 766.044C1700.67 766.372 1701.32 766.536 1702.04 766.536ZM1721.3 755.364L1715.61 761.052L1721.96 768H1719.31L1713.09 761.1L1718.68 755.364H1721.3ZM1712.86 750.024V768H1710.85V750.276L1712.86 750.024ZM1734.16 765.24C1734.16 765.744 1734.24 766.112 1734.41 766.344C1734.58 766.576 1734.84 766.748 1735.19 766.86L1734.7 768.276C1734.15 768.204 1733.68 768.032 1733.27 767.76C1732.86 767.48 1732.56 767.06 1732.38 766.5C1731.92 767.084 1731.36 767.528 1730.68 767.832C1730 768.128 1729.24 768.276 1728.42 768.276C1727.16 768.276 1726.16 767.92 1725.43 767.208C1724.7 766.496 1724.34 765.552 1724.34 764.376C1724.34 763.072 1724.85 762.072 1725.86 761.376C1726.88 760.68 1728.35 760.332 1730.27 760.332H1732.13V759.276C1732.13 758.364 1731.86 757.72 1731.32 757.344C1730.8 756.96 1730.06 756.768 1729.12 756.768C1728.7 756.768 1728.21 756.82 1727.65 756.924C1727.09 757.02 1726.48 757.184 1725.83 757.416L1725.3 755.892C1726.08 755.604 1726.8 755.4 1727.48 755.28C1728.16 755.16 1728.81 755.1 1729.43 755.1C1731 755.1 1732.18 755.468 1732.97 756.204C1733.76 756.932 1734.16 757.924 1734.16 759.18V765.24ZM1728.94 766.74C1729.56 766.74 1730.16 766.584 1730.72 766.272C1731.29 765.952 1731.76 765.512 1732.13 764.952V761.7H1730.3C1728.91 761.7 1727.93 761.94 1727.35 762.42C1726.78 762.9 1726.5 763.544 1726.5 764.352C1726.5 765.136 1726.7 765.732 1727.1 766.14C1727.51 766.54 1728.12 766.74 1728.94 766.74ZM1749.77 754.02L1750.39 755.916C1749.86 756.084 1749.29 756.188 1748.68 756.228C1748.07 756.268 1747.41 756.288 1746.7 756.288C1747.43 756.624 1747.97 757.06 1748.34 757.596C1748.71 758.124 1748.89 758.748 1748.89 759.468C1748.89 760.3 1748.71 761.04 1748.33 761.688C1747.95 762.336 1747.41 762.844 1746.7 763.212C1745.99 763.58 1745.14 763.764 1744.14 763.764C1743.72 763.764 1743.36 763.744 1743.07 763.704C1742.79 763.664 1742.52 763.604 1742.26 763.524C1742.07 763.652 1741.91 763.828 1741.78 764.052C1741.66 764.276 1741.6 764.508 1741.6 764.748C1741.6 765.052 1741.72 765.304 1741.96 765.504C1742.2 765.704 1742.64 765.804 1743.29 765.804H1745.57C1746.42 765.804 1747.18 765.956 1747.85 766.26C1748.53 766.564 1749.06 766.972 1749.45 767.484C1749.84 767.996 1750.03 768.58 1750.03 769.236C1750.03 770.476 1749.51 771.428 1748.45 772.092C1747.4 772.756 1745.92 773.088 1744 773.088C1742.65 773.088 1741.59 772.948 1740.82 772.668C1740.04 772.396 1739.49 771.976 1739.15 771.408C1738.82 770.848 1738.66 770.14 1738.66 769.284H1740.48C1740.48 769.772 1740.58 770.176 1740.77 770.496C1740.96 770.816 1741.31 771.052 1741.81 771.204C1742.32 771.364 1743.04 771.444 1743.99 771.444C1744.91 771.444 1745.67 771.364 1746.25 771.204C1746.85 771.052 1747.28 770.82 1747.56 770.508C1747.85 770.204 1747.99 769.824 1747.99 769.368C1747.99 768.768 1747.72 768.316 1747.18 768.012C1746.63 767.708 1745.95 767.556 1745.14 767.556H1742.88C1741.79 767.556 1740.99 767.316 1740.47 766.836C1739.96 766.356 1739.7 765.804 1739.7 765.18C1739.7 764.772 1739.82 764.376 1740.05 763.992C1740.29 763.608 1740.64 763.268 1741.09 762.972C1740.37 762.588 1739.83 762.112 1739.49 761.544C1739.14 760.976 1738.97 760.288 1738.97 759.48C1738.97 758.624 1739.18 757.868 1739.61 757.212C1740.03 756.548 1740.62 756.028 1741.38 755.652C1742.14 755.276 1743.02 755.088 1744.01 755.088C1745.07 755.08 1745.94 755.036 1746.6 754.956C1747.27 754.868 1747.83 754.744 1748.31 754.584C1748.79 754.424 1749.27 754.236 1749.77 754.02ZM1744.01 756.564C1742.99 756.564 1742.24 756.84 1741.75 757.392C1741.27 757.936 1741.03 758.632 1741.03 759.48C1741.03 760.336 1741.28 761.04 1741.78 761.592C1742.27 762.144 1743.03 762.42 1744.06 762.42C1744.95 762.42 1745.63 762.16 1746.1 761.64C1746.57 761.12 1746.81 760.396 1746.81 759.468C1746.81 758.516 1746.57 757.796 1746.1 757.308C1745.63 756.812 1744.94 756.564 1744.01 756.564ZM1755.47 762.396C1755.51 763.372 1755.7 764.172 1756.04 764.796C1756.37 765.412 1756.82 765.868 1757.37 766.164C1757.92 766.452 1758.52 766.596 1759.17 766.596C1759.82 766.596 1760.4 766.5 1760.92 766.308C1761.45 766.116 1761.99 765.832 1762.54 765.456L1763.49 766.788C1762.9 767.252 1762.22 767.616 1761.46 767.88C1760.71 768.144 1759.94 768.276 1759.14 768.276C1757.92 768.276 1756.88 768 1756.01 767.448C1755.15 766.896 1754.49 766.128 1754.03 765.144C1753.58 764.152 1753.36 763.004 1753.36 761.7C1753.36 760.42 1753.59 759.284 1754.04 758.292C1754.5 757.3 1755.14 756.52 1755.96 755.952C1756.79 755.384 1757.76 755.1 1758.88 755.1C1759.94 755.1 1760.86 755.352 1761.63 755.856C1762.4 756.352 1762.98 757.064 1763.39 757.992C1763.81 758.912 1764.02 760.012 1764.02 761.292C1764.02 761.508 1764.01 761.712 1764 761.904C1764 762.088 1763.98 762.252 1763.97 762.396H1755.47ZM1758.9 756.756C1757.97 756.756 1757.18 757.088 1756.55 757.752C1755.93 758.416 1755.57 759.444 1755.48 760.836H1762.07C1762.05 759.484 1761.75 758.468 1761.18 757.788C1760.62 757.1 1759.86 756.756 1758.9 756.756ZM1772.58 766.608C1773.54 766.608 1774.31 766.428 1774.87 766.068C1775.44 765.7 1775.72 765.212 1775.72 764.604C1775.72 764.22 1775.65 763.888 1775.5 763.608C1775.37 763.328 1775.08 763.076 1774.65 762.852C1774.22 762.628 1773.56 762.404 1772.66 762.18C1771.79 761.964 1771.03 761.716 1770.38 761.436C1769.74 761.148 1769.24 760.776 1768.88 760.32C1768.53 759.864 1768.35 759.272 1768.35 758.544C1768.35 757.832 1768.55 757.22 1768.95 756.708C1769.36 756.188 1769.92 755.792 1770.64 755.52C1771.36 755.24 1772.2 755.1 1773.15 755.1C1774.17 755.1 1775.05 755.236 1775.8 755.508C1776.56 755.772 1777.21 756.1 1777.74 756.492L1776.85 757.86C1776.37 757.532 1775.84 757.264 1775.26 757.056C1774.69 756.84 1773.99 756.732 1773.18 756.732C1772.18 756.732 1771.48 756.888 1771.06 757.2C1770.65 757.504 1770.44 757.9 1770.44 758.388C1770.44 758.756 1770.54 759.064 1770.74 759.312C1770.95 759.552 1771.3 759.772 1771.78 759.972C1772.27 760.164 1772.94 760.376 1773.8 760.608C1774.62 760.824 1775.34 761.084 1775.95 761.388C1776.56 761.692 1777.04 762.092 1777.39 762.588C1777.73 763.084 1777.9 763.724 1777.9 764.508C1777.9 765.404 1777.65 766.132 1777.14 766.692C1776.62 767.244 1775.96 767.648 1775.14 767.904C1774.34 768.152 1773.48 768.276 1772.58 768.276C1771.43 768.276 1770.46 768.112 1769.65 767.784C1768.85 767.448 1768.18 767.044 1767.63 766.572L1768.78 765.24C1769.28 765.648 1769.85 765.98 1770.49 766.236C1771.14 766.484 1771.83 766.608 1772.58 766.608ZM1783.15 770.472L1781.52 769.752L1791.79 748.572L1793.4 749.364L1783.15 770.472ZM1797.06 768V755.364H1798.78L1798.93 757.116C1799.44 756.468 1800.08 755.972 1800.85 755.628C1801.63 755.276 1802.38 755.1 1803.11 755.1C1804.35 755.1 1805.25 755.428 1805.81 756.084C1806.38 756.74 1806.66 757.652 1806.66 758.82V768H1804.64V760.308C1804.64 759.444 1804.6 758.748 1804.5 758.22C1804.4 757.684 1804.2 757.296 1803.9 757.056C1803.6 756.808 1803.12 756.684 1802.48 756.684C1801.99 756.684 1801.52 756.792 1801.08 757.008C1800.65 757.224 1800.26 757.496 1799.92 757.824C1799.58 758.144 1799.3 758.468 1799.08 758.796V768H1797.06ZM1820.5 765.24C1820.5 765.744 1820.58 766.112 1820.75 766.344C1820.92 766.576 1821.18 766.748 1821.53 766.86L1821.04 768.276C1820.5 768.204 1820.02 768.032 1819.61 767.76C1819.2 767.48 1818.91 767.06 1818.72 766.5C1818.27 767.084 1817.7 767.528 1817.02 767.832C1816.34 768.128 1815.59 768.276 1814.76 768.276C1813.5 768.276 1812.5 767.92 1811.78 767.208C1811.05 766.496 1810.68 765.552 1810.68 764.376C1810.68 763.072 1811.19 762.072 1812.21 761.376C1813.22 760.68 1814.69 760.332 1816.61 760.332H1818.47V759.276C1818.47 758.364 1818.2 757.72 1817.67 757.344C1817.14 756.96 1816.4 756.768 1815.46 756.768C1815.04 756.768 1814.56 756.82 1814 756.924C1813.44 757.02 1812.83 757.184 1812.17 757.416L1811.64 755.892C1812.42 755.604 1813.15 755.4 1813.83 755.28C1814.51 755.16 1815.16 755.1 1815.77 755.1C1817.35 755.1 1818.53 755.468 1819.31 756.204C1820.1 756.932 1820.5 757.924 1820.5 759.18V765.24ZM1815.28 766.74C1815.9 766.74 1816.5 766.584 1817.07 766.272C1817.64 765.952 1818.1 765.512 1818.47 764.952V761.7H1816.65C1815.26 761.7 1814.27 761.94 1813.7 762.42C1813.13 762.9 1812.84 763.544 1812.84 764.352C1812.84 765.136 1813.04 765.732 1813.44 766.14C1813.85 766.54 1814.46 766.74 1815.28 766.74ZM1836.38 755.364L1831.78 768H1829.44L1824.88 755.364H1827.02L1830.68 766.164L1834.29 755.364H1836.38ZM1849.28 765.24C1849.28 765.744 1849.36 766.112 1849.53 766.344C1849.7 766.576 1849.96 766.748 1850.31 766.86L1849.82 768.276C1849.28 768.204 1848.8 768.032 1848.39 767.76C1847.98 767.48 1847.69 767.06 1847.5 766.5C1847.05 767.084 1846.48 767.528 1845.8 767.832C1845.12 768.128 1844.37 768.276 1843.54 768.276C1842.28 768.276 1841.28 767.92 1840.56 767.208C1839.83 766.496 1839.46 765.552 1839.46 764.376C1839.46 763.072 1839.97 762.072 1840.99 761.376C1842 760.68 1843.47 760.332 1845.39 760.332H1847.25V759.276C1847.25 758.364 1846.98 757.72 1846.45 757.344C1845.92 756.96 1845.18 756.768 1844.24 756.768C1843.82 756.768 1843.34 756.82 1842.78 756.924C1842.22 757.02 1841.61 757.184 1840.95 757.416L1840.42 755.892C1841.2 755.604 1841.93 755.4 1842.61 755.28C1843.29 755.16 1843.94 755.1 1844.55 755.1C1846.13 755.1 1847.31 755.468 1848.09 756.204C1848.88 756.932 1849.28 757.924 1849.28 759.18V765.24ZM1844.06 766.74C1844.68 766.74 1845.28 766.584 1845.85 766.272C1846.42 765.952 1846.88 765.512 1847.25 764.952V761.7H1845.43C1844.04 761.7 1843.05 761.94 1842.48 762.42C1841.91 762.9 1841.62 763.544 1841.62 764.352C1841.62 765.136 1841.82 765.732 1842.22 766.14C1842.63 766.54 1843.24 766.74 1844.06 766.74ZM1854.62 768V755.364H1856.34L1856.49 757.116C1857.01 756.468 1857.65 755.972 1858.41 755.628C1859.19 755.276 1859.94 755.1 1860.67 755.1C1861.91 755.1 1862.81 755.428 1863.37 756.084C1863.94 756.74 1864.22 757.652 1864.22 758.82V768H1862.21V760.308C1862.21 759.444 1862.16 758.748 1862.06 758.22C1861.97 757.684 1861.77 757.296 1861.46 757.056C1861.16 756.808 1860.69 756.684 1860.05 756.684C1859.55 756.684 1859.08 756.792 1858.64 757.008C1858.21 757.224 1857.82 757.496 1857.48 757.824C1857.14 758.144 1856.86 758.468 1856.64 758.796V768H1854.62ZM1876.57 750.024L1878.59 750.276V768H1876.83L1876.63 766.332C1876.16 767.004 1875.62 767.496 1875 767.808C1874.39 768.12 1873.74 768.276 1873.05 768.276C1871.95 768.276 1871.05 768 1870.33 767.448C1869.62 766.896 1869.09 766.128 1868.75 765.144C1868.41 764.152 1868.23 763.004 1868.23 761.7C1868.23 760.436 1868.43 759.308 1868.82 758.316C1869.21 757.316 1869.78 756.532 1870.51 755.964C1871.26 755.388 1872.15 755.1 1873.19 755.1C1873.92 755.1 1874.56 755.228 1875.11 755.484C1875.66 755.732 1876.15 756.1 1876.57 756.588V750.024ZM1873.72 756.72C1872.66 756.72 1871.85 757.132 1871.28 757.956C1870.71 758.78 1870.43 760.028 1870.43 761.7C1870.43 762.788 1870.55 763.7 1870.78 764.436C1871.01 765.172 1871.35 765.724 1871.8 766.092C1872.25 766.46 1872.81 766.644 1873.47 766.644C1874.19 766.644 1874.8 766.44 1875.3 766.032C1875.81 765.624 1876.24 765.164 1876.57 764.652V758.34C1876.23 757.828 1875.81 757.432 1875.33 757.152C1874.84 756.864 1874.3 756.72 1873.72 756.72Z"
        fill="black" fill-opacity="0.25" />
</svg>