<svg width="1920" height="800" viewBox="0 0 1920 800" fill="none" xmlns="http://www.w3.org/2000/svg">
    <rect width="1920" height="800" fill="#0D1117" />
    <path
        d="M624 415.522L554.263 489.578L552.209 481.914C550.764 476.521 550.366 470.895 551.035 465.31L552.132 456.154C553.781 442.398 551.537 428.576 545.634 416.128L541.141 406.579L523.325 409.851C510.788 412.152 499.001 417.496 489.115 425.363L484.952 428.591C482.388 430.58 479.106 431.492 475.881 431.113C470.242 430.449 465.664 426.619 464.264 421.39L460 405.479L529.98 330.665L524.443 310C531.711 313.93 537.943 319.685 541.771 326.769C575.978 334.244 604.17 358.917 615.724 390.4L624 415.522Z"
        fill="white" />
    <path
        d="M679.968 490H676.64V310.8H685.344L791.84 476.432V310.8H795.168V490H776.48L679.968 341.52V490ZM927.718 490C916.113 490 908.177 487.781 903.91 483.344C899.985 479.589 898.022 476.347 898.022 473.616V468.24C889.659 483.429 876.262 491.024 857.83 491.024C836.326 491.024 824.123 481.296 821.222 461.84C820.881 459.792 820.71 457.744 820.71 455.696C820.71 453.477 821.051 451.088 821.734 448.528C822.417 445.968 824.379 443.152 827.622 440.08C834.107 433.936 848.358 430.181 870.374 428.816C875.835 428.304 880.87 428.048 885.478 428.048C890.086 428.048 894.267 428.219 898.022 428.56V386.064C897.681 385.893 897.681 385.125 898.022 383.76C898.363 382.224 898.022 380.347 896.998 378.128C896.145 375.739 894.95 373.435 893.414 371.216C891.878 368.997 889.147 367.12 885.222 365.584C881.297 363.877 876.177 363.024 869.862 363.024C863.547 363.024 856.123 364.219 847.59 366.608C839.227 368.827 833.083 371.045 829.158 373.264L828.134 371.472C843.323 364.475 858.769 360.976 874.47 360.976C892.049 360.976 903.654 364.133 909.286 370.448C913.723 375.397 915.942 380.603 915.942 386.064V471.824C915.942 476.773 916.881 480.613 918.758 483.344C920.806 485.904 922.854 487.269 924.902 487.44L927.718 487.952H935.654V490H927.718ZM861.926 488.976C870.971 488.976 879.078 485.904 886.246 479.76C893.585 473.445 897.51 467.387 898.022 461.584V430.608C893.414 430.267 888.721 430.096 883.942 430.096C879.334 430.096 874.726 430.352 870.118 430.864C857.147 432.4 848.699 435.301 844.774 439.568C840.849 443.835 838.886 449.723 838.886 457.232C838.886 458.597 838.971 460.133 839.142 461.84C840.678 479.931 848.273 488.976 861.926 488.976ZM1036.45 363.536L1037.99 362C1038.67 362.341 1039.53 363.365 1040.55 365.072C1041.74 366.779 1042.43 368.315 1042.6 369.68C1042.94 371.045 1043.11 372.325 1043.11 373.52C1043.11 378.128 1042.09 382.821 1040.04 387.6L990.886 490H988.326L940.71 362H958.63L997.798 467.984L1037.48 387.6C1039.53 384.016 1040.55 379.749 1040.55 374.8C1040.55 369.851 1039.18 366.096 1036.45 363.536ZM1162.97 490C1151.36 490 1143.43 487.781 1139.16 483.344C1135.23 479.589 1133.27 476.347 1133.27 473.616V468.24C1124.91 483.429 1111.51 491.024 1093.08 491.024C1071.58 491.024 1059.37 481.296 1056.47 461.84C1056.13 459.792 1055.96 457.744 1055.96 455.696C1055.96 453.477 1056.3 451.088 1056.98 448.528C1057.67 445.968 1059.63 443.152 1062.87 440.08C1069.36 433.936 1083.61 430.181 1105.62 428.816C1111.09 428.304 1116.12 428.048 1120.73 428.048C1125.34 428.048 1129.52 428.219 1133.27 428.56V386.064C1132.93 385.893 1132.93 385.125 1133.27 383.76C1133.61 382.224 1133.27 380.347 1132.25 378.128C1131.39 375.739 1130.2 373.435 1128.66 371.216C1127.13 368.997 1124.4 367.12 1120.47 365.584C1116.55 363.877 1111.43 363.024 1105.11 363.024C1098.8 363.024 1091.37 364.219 1082.84 366.608C1074.48 368.827 1068.33 371.045 1064.41 373.264L1063.38 371.472C1078.57 364.475 1094.02 360.976 1109.72 360.976C1127.3 360.976 1138.9 364.133 1144.54 370.448C1148.97 375.397 1151.19 380.603 1151.19 386.064V471.824C1151.19 476.773 1152.13 480.613 1154.01 483.344C1156.06 485.904 1158.1 487.269 1160.15 487.44L1162.97 487.952H1170.9V490H1162.97ZM1097.18 488.976C1106.22 488.976 1114.33 485.904 1121.5 479.76C1128.83 473.445 1132.76 467.387 1133.27 461.584V430.608C1128.66 430.267 1123.97 430.096 1119.19 430.096C1114.58 430.096 1109.98 430.352 1105.37 430.864C1092.4 432.4 1083.95 435.301 1080.02 439.568C1076.1 443.835 1074.14 449.723 1074.14 457.232C1074.14 458.597 1074.22 460.133 1074.39 461.84C1075.93 479.931 1083.52 488.976 1097.18 488.976ZM1291.23 490C1284.23 490 1278.86 488.464 1275.1 485.392C1271.52 482.32 1269.64 479.248 1269.47 476.176L1269.21 471.824V391.44C1269.21 377.957 1265.72 369.339 1258.72 365.584C1255.13 363.877 1250.7 363.024 1245.41 363.024C1234.48 363.024 1224.67 367.376 1215.97 376.08C1207.26 384.613 1202.91 392.293 1202.91 399.12V490H1184.99V362H1202.91V391.184C1205.81 383.845 1211.19 377.019 1219.04 370.704C1226.89 364.219 1235.51 360.976 1244.89 360.976C1254.28 360.976 1261.88 361.915 1267.68 363.792C1273.65 365.499 1278 367.973 1280.73 371.216C1285 376.507 1287.13 383.333 1287.13 391.696V471.824C1287.13 476.773 1288.07 480.613 1289.95 483.344C1292 485.904 1294.05 487.269 1296.09 487.44L1298.91 487.952H1306.85V490H1291.23ZM1317.24 430.608C1317.24 408.421 1322.62 391.269 1333.37 379.152C1344.12 367.035 1360.25 360.976 1381.75 360.976C1391.82 360.976 1401.98 363.536 1412.22 368.656V298.256H1430.14V471.824C1430.14 476.773 1431.07 480.613 1432.95 483.344C1435 485.904 1437.05 487.269 1439.1 487.44L1441.91 487.952H1449.85V490H1434.23C1427.23 490 1421.86 488.464 1418.1 485.392C1414.52 482.32 1412.64 479.248 1412.47 476.176L1412.22 471.824V467.728C1408.97 473.701 1403.6 478.992 1396.09 483.6C1388.58 488.208 1379.7 490.512 1369.46 490.512C1334.65 489.659 1317.24 469.691 1317.24 430.608ZM1369.72 488.464C1381.15 488.464 1390.97 485.392 1399.16 479.248C1407.35 473.104 1411.7 467.045 1412.22 461.072V370.96C1400.1 365.669 1389.69 363.024 1380.98 363.024C1365.79 363.024 1354.36 368.997 1346.68 380.944C1339 392.72 1335.16 409.275 1335.16 430.608C1335.16 469.179 1346.68 488.464 1369.72 488.464Z"
        fill="white" />
    <path fill-rule="evenodd" clip-rule="evenodd"
        d="M48.0132 736C39.1583 736 32 743.333 32 752.406C32 759.658 36.5866 765.796 42.9494 767.969C43.7449 768.132 44.0363 767.616 44.0363 767.182C44.0363 766.801 44.0101 765.498 44.0101 764.139C39.5556 765.117 38.628 762.184 38.628 762.184C37.9121 760.282 36.8514 759.794 36.8514 759.794C35.3935 758.789 36.9576 758.789 36.9576 758.789C38.5749 758.897 39.4235 760.473 39.4235 760.473C40.8549 762.971 43.1615 762.265 44.0894 761.831C44.2218 760.771 44.6463 760.038 45.097 759.631C41.5442 759.25 37.8063 757.838 37.8063 751.536C37.8063 749.744 38.4421 748.277 39.4497 747.136C39.2908 746.729 38.7339 745.045 39.609 742.79C39.609 742.79 40.9611 742.356 44.0098 744.474C45.315 744.115 46.6611 743.933 48.0132 743.931C49.3653 743.931 50.7436 744.121 52.0164 744.474C55.0654 742.356 56.4175 742.79 56.4175 742.79C57.2926 745.045 56.7354 746.729 56.5764 747.136C57.6106 748.277 58.2202 749.744 58.2202 751.536C58.2202 757.838 54.4823 759.223 50.9029 759.631C51.4864 760.147 51.9898 761.124 51.9898 762.673C51.9898 764.873 51.9636 766.638 51.9636 767.181C51.9636 767.616 52.2553 768.132 53.0505 767.969C59.4133 765.796 63.9999 759.658 63.9999 752.406C64.0261 743.333 56.8416 736 48.0132 736Z"
        fill="white" />
    <path
        d="M92.9005 746.26L93.4525 747.892C92.8845 748.052 92.2965 748.148 91.6885 748.18C91.0805 748.212 90.4325 748.228 89.7445 748.228C90.4565 748.556 90.9885 748.992 91.3405 749.536C91.6925 750.072 91.8685 750.684 91.8685 751.372C91.8685 752.204 91.6885 752.948 91.3285 753.604C90.9685 754.252 90.4485 754.76 89.7685 755.128C89.0965 755.496 88.2765 755.68 87.3085 755.68C86.8365 755.68 86.4525 755.66 86.1565 755.62C85.8605 755.572 85.5725 755.5 85.2925 755.404C85.0925 755.556 84.9205 755.756 84.7765 756.004C84.6405 756.252 84.5725 756.512 84.5725 756.784C84.5725 757.112 84.7005 757.384 84.9565 757.6C85.2205 757.816 85.6845 757.924 86.3485 757.924H88.6765C89.4845 757.924 90.2165 758.072 90.8725 758.368C91.5365 758.664 92.0605 759.064 92.4445 759.568C92.8365 760.072 93.0325 760.64 93.0325 761.272C93.0325 762.496 92.5165 763.424 91.4845 764.056C90.4605 764.696 89.0405 765.016 87.2245 765.016C85.9685 765.016 84.9685 764.884 84.2245 764.62C83.4805 764.364 82.9445 763.96 82.6165 763.408C82.2965 762.864 82.1365 762.16 82.1365 761.296H83.5045C83.5045 761.824 83.6045 762.26 83.8045 762.604C84.0125 762.948 84.3805 763.204 84.9085 763.372C85.4365 763.548 86.1925 763.636 87.1765 763.636C88.1445 763.636 88.9445 763.552 89.5765 763.384C90.2165 763.224 90.6965 762.976 91.0165 762.64C91.3365 762.304 91.4965 761.88 91.4965 761.368C91.4965 760.704 91.1885 760.208 90.5725 759.88C89.9565 759.552 89.2165 759.388 88.3525 759.388H86.0245C85.0165 759.388 84.2725 759.152 83.7925 758.68C83.3125 758.208 83.0725 757.668 83.0725 757.06C83.0725 756.676 83.1845 756.3 83.4085 755.932C83.6405 755.556 83.9845 755.216 84.4405 754.912C83.7445 754.544 83.2245 754.08 82.8805 753.52C82.5365 752.96 82.3645 752.276 82.3645 751.468C82.3645 750.644 82.5685 749.908 82.9765 749.26C83.3845 748.612 83.9525 748.1 84.6805 747.724C85.4085 747.348 86.2525 747.16 87.2125 747.16C88.3085 747.144 89.1805 747.104 89.8285 747.04C90.4845 746.968 91.0365 746.868 91.4845 746.74C91.9405 746.612 92.4125 746.452 92.9005 746.26ZM87.1765 748.336C86.0405 748.336 85.2085 748.636 84.6805 749.236C84.1605 749.836 83.9005 750.588 83.9005 751.492C83.9005 752.388 84.1685 753.14 84.7045 753.748C85.2405 754.348 86.0885 754.648 87.2485 754.648C88.2165 754.648 88.9565 754.368 89.4685 753.808C89.9805 753.248 90.2365 752.472 90.2365 751.48C90.2365 750.456 89.9805 749.676 89.4685 749.14C88.9565 748.604 88.1925 748.336 87.1765 748.336ZM103.319 747.4V758.704H106.979V760H97.8471V758.704H101.831V748.696H97.9671V747.4H103.319ZM101.915 741.7C102.299 741.7 102.603 741.816 102.827 742.048C103.051 742.28 103.163 742.56 103.163 742.888C103.163 743.24 103.051 743.536 102.827 743.776C102.603 744.008 102.299 744.124 101.915 744.124C101.555 744.124 101.263 744.008 101.039 743.776C100.815 743.536 100.703 743.24 100.703 742.888C100.703 742.56 100.815 742.28 101.039 742.048C101.263 741.816 101.555 741.7 101.915 741.7ZM121.334 759.4C120.918 759.672 120.414 759.88 119.822 760.024C119.23 760.168 118.682 760.24 118.178 760.24C116.914 760.24 115.922 759.904 115.202 759.232C114.49 758.56 114.134 757.716 114.134 756.7V748.648H111.158V747.4H114.134V744.496L115.622 744.316V747.4H120.062L119.858 748.648H115.622V756.664C115.622 757.392 115.818 757.956 116.21 758.356C116.61 758.748 117.278 758.944 118.214 758.944C118.694 758.944 119.138 758.888 119.546 758.776C119.954 758.664 120.334 758.516 120.686 758.332L121.334 759.4ZM127.6 742.156V749.26C128.088 748.572 128.708 748.052 129.46 747.7C130.212 747.348 130.964 747.172 131.716 747.172C132.98 747.172 133.892 747.5 134.452 748.156C135.012 748.812 135.292 749.72 135.292 750.88V760H133.804V750.616C133.804 749.864 133.6 749.308 133.192 748.948C132.784 748.588 132.164 748.408 131.332 748.408C130.788 748.408 130.272 748.528 129.784 748.768C129.296 749.008 128.864 749.304 128.488 749.656C128.112 750 127.816 750.34 127.6 750.676V760H126.112V742.336L127.6 742.156ZM141.991 747.4V756.412C141.991 757.308 142.179 757.964 142.555 758.38C142.939 758.788 143.543 758.992 144.367 758.992C145.151 758.992 145.887 758.772 146.575 758.332C147.263 757.884 147.791 757.372 148.159 756.796V747.4H149.647V760H148.399L148.231 758.236C147.719 758.876 147.095 759.372 146.359 759.724C145.623 760.068 144.887 760.24 144.151 760.24C142.935 760.24 142.023 759.924 141.415 759.292C140.807 758.652 140.503 757.752 140.503 756.592V747.4H141.991ZM156.382 749.14C156.862 748.508 157.41 748.024 158.026 747.688C158.65 747.344 159.338 747.172 160.09 747.172C161.226 747.172 162.142 747.444 162.838 747.988C163.534 748.532 164.038 749.296 164.35 750.28C164.67 751.256 164.83 752.396 164.83 753.7C164.83 754.964 164.638 756.088 164.254 757.072C163.878 758.056 163.322 758.832 162.586 759.4C161.85 759.96 160.942 760.24 159.862 760.24C158.358 760.24 157.182 759.708 156.334 758.644L156.19 760H154.894V742.3L156.382 742.096V749.14ZM159.538 758.944C160.706 758.944 161.598 758.508 162.214 757.636C162.838 756.756 163.15 755.436 163.15 753.676C163.15 752.556 163.026 751.608 162.778 750.832C162.538 750.056 162.174 749.464 161.686 749.056C161.206 748.648 160.602 748.444 159.874 748.444C159.09 748.444 158.402 748.68 157.81 749.152C157.218 749.616 156.742 750.112 156.382 750.64V757.168C156.742 757.704 157.198 758.136 157.75 758.464C158.31 758.784 158.906 758.944 159.538 758.944ZM171.9 758.272C171.9 757.912 171.984 757.588 172.152 757.3C172.32 757.004 172.548 756.772 172.836 756.604C173.124 756.436 173.452 756.352 173.82 756.352C174.204 756.352 174.544 756.436 174.84 756.604C175.136 756.772 175.368 757.004 175.536 757.3C175.704 757.588 175.788 757.912 175.788 758.272C175.788 758.64 175.704 758.976 175.536 759.28C175.368 759.576 175.136 759.812 174.84 759.988C174.544 760.156 174.204 760.24 173.82 760.24C173.452 760.24 173.124 760.156 172.836 759.988C172.548 759.812 172.32 759.576 172.152 759.28C171.984 758.976 171.9 758.64 171.9 758.272ZM189.075 758.872C189.747 758.872 190.367 758.768 190.935 758.56C191.511 758.352 192.031 758.084 192.495 757.756L193.275 758.764C192.723 759.228 192.063 759.592 191.295 759.856C190.527 760.112 189.807 760.24 189.135 760.24C187.911 760.24 186.871 759.976 186.015 759.448C185.167 758.912 184.519 758.156 184.071 757.18C183.631 756.204 183.411 755.06 183.411 753.748C183.411 752.5 183.631 751.38 184.071 750.388C184.519 749.396 185.167 748.612 186.015 748.036C186.871 747.46 187.915 747.172 189.147 747.172C189.907 747.172 190.631 747.292 191.319 747.532C192.015 747.772 192.655 748.128 193.239 748.6L192.447 749.668C191.879 749.276 191.315 748.984 190.755 748.792C190.203 748.592 189.643 748.492 189.075 748.492C187.915 748.492 186.955 748.932 186.195 749.812C185.443 750.692 185.067 752.004 185.067 753.748C185.067 754.924 185.239 755.892 185.583 756.652C185.927 757.404 186.399 757.964 186.999 758.332C187.607 758.692 188.299 758.872 189.075 758.872ZM202.674 747.172C203.826 747.172 204.786 747.44 205.554 747.976C206.322 748.512 206.894 749.268 207.27 750.244C207.654 751.22 207.846 752.372 207.846 753.7C207.846 754.948 207.65 756.064 207.258 757.048C206.866 758.032 206.282 758.812 205.506 759.388C204.738 759.956 203.782 760.24 202.638 760.24C201.486 760.24 200.522 759.968 199.746 759.424C198.978 758.872 198.398 758.108 198.006 757.132C197.622 756.148 197.43 755.012 197.43 753.724C197.43 752.436 197.626 751.3 198.018 750.316C198.41 749.332 198.994 748.564 199.77 748.012C200.554 747.452 201.522 747.172 202.674 747.172ZM202.674 748.48C201.49 748.48 200.59 748.908 199.974 749.764C199.366 750.62 199.062 751.94 199.062 753.724C199.062 755.468 199.362 756.772 199.962 757.636C200.562 758.492 201.454 758.92 202.638 758.92C203.822 758.92 204.714 758.492 205.314 757.636C205.914 756.772 206.214 755.46 206.214 753.7C206.214 751.932 205.914 750.62 205.314 749.764C204.722 748.908 203.842 748.48 202.674 748.48ZM220.46 747.172C220.804 747.172 221.16 747.252 221.528 747.412C221.896 747.564 222.208 747.884 222.464 748.372C222.72 748.86 222.848 749.604 222.848 750.604V760H221.384V750.892C221.384 749.996 221.332 749.348 221.228 748.948C221.132 748.548 220.828 748.348 220.316 748.348C219.884 748.348 219.456 748.484 219.032 748.756C218.616 749.02 218.22 749.456 217.844 750.064V760H216.188V750.892C216.188 749.996 216.136 749.348 216.032 748.948C215.936 748.548 215.632 748.348 215.12 748.348C214.672 748.348 214.24 748.484 213.824 748.756C213.416 749.02 213.024 749.456 212.648 750.064V760H211.208V747.4H212.432L212.516 748.924C212.844 748.452 213.224 748.044 213.656 747.7C214.096 747.348 214.64 747.172 215.288 747.172C215.768 747.172 216.232 747.288 216.68 747.52C217.136 747.744 217.472 748.2 217.688 748.888C218.016 748.376 218.392 747.964 218.816 747.652C219.24 747.332 219.788 747.172 220.46 747.172ZM226.883 762.412L225.647 761.872L235.979 740.632L237.191 741.244L226.883 762.412ZM249.253 760V751.912H242.365V760H240.841V743.512H242.365V750.664H249.253V743.512H250.777V760H249.253ZM264.184 757.516C264.184 758.028 264.272 758.404 264.448 758.644C264.624 758.876 264.896 759.048 265.264 759.16L264.856 760.252C264.376 760.18 263.948 760.004 263.572 759.724C263.196 759.444 262.932 759.016 262.78 758.44C262.34 759.024 261.788 759.472 261.124 759.784C260.468 760.088 259.724 760.24 258.892 760.24C257.644 760.24 256.664 759.888 255.952 759.184C255.24 758.48 254.884 757.54 254.884 756.364C254.884 755.084 255.38 754.104 256.372 753.424C257.372 752.744 258.824 752.404 260.728 752.404H262.636V751.18C262.636 750.196 262.352 749.508 261.784 749.116C261.224 748.716 260.456 748.516 259.48 748.516C259.056 748.516 258.576 748.564 258.04 748.66C257.504 748.756 256.908 748.92 256.252 749.152L255.82 747.928C256.58 747.648 257.268 747.452 257.884 747.34C258.508 747.228 259.112 747.172 259.696 747.172C261.176 747.172 262.292 747.536 263.044 748.264C263.804 748.984 264.184 749.94 264.184 751.132V757.516ZM259.18 759.052C259.868 759.052 260.512 758.884 261.112 758.548C261.712 758.212 262.22 757.744 262.636 757.144V753.544H260.548C259.052 753.544 258.008 753.808 257.416 754.336C256.824 754.856 256.528 755.548 256.528 756.412C256.528 757.284 256.744 757.944 257.176 758.392C257.608 758.832 258.276 759.052 259.18 759.052ZM278.947 760H276.487L274.687 750.52L272.731 760H270.343L267.907 747.4H269.551L271.399 759.088L273.619 749.008H275.767L277.879 759.088L279.715 747.4H281.275L278.947 760ZM292.413 747.172C292.757 747.172 293.113 747.252 293.481 747.412C293.849 747.564 294.161 747.884 294.417 748.372C294.673 748.86 294.801 749.604 294.801 750.604V760H293.337V750.892C293.337 749.996 293.285 749.348 293.181 748.948C293.085 748.548 292.781 748.348 292.269 748.348C291.837 748.348 291.409 748.484 290.985 748.756C290.569 749.02 290.173 749.456 289.797 750.064V760H288.141V750.892C288.141 749.996 288.089 749.348 287.985 748.948C287.889 748.548 287.585 748.348 287.073 748.348C286.625 748.348 286.193 748.484 285.777 748.756C285.369 749.02 284.977 749.456 284.601 750.064V760H283.161V747.4H284.385L284.469 748.924C284.797 748.452 285.177 748.044 285.609 747.7C286.049 747.348 286.593 747.172 287.241 747.172C287.721 747.172 288.185 747.288 288.633 747.52C289.089 747.744 289.425 748.2 289.641 748.888C289.969 748.376 290.345 747.964 290.769 747.652C291.193 747.332 291.741 747.172 292.413 747.172ZM299.88 754.3C299.904 755.356 300.092 756.224 300.444 756.904C300.804 757.576 301.276 758.072 301.86 758.392C302.444 758.712 303.08 758.872 303.768 758.872C304.432 758.872 305.02 758.776 305.532 758.584C306.052 758.392 306.596 758.1 307.164 757.708L307.944 758.824C307.36 759.272 306.7 759.62 305.964 759.868C305.236 760.116 304.524 760.24 303.828 760.24C302.668 760.24 301.672 759.968 300.84 759.424C300.016 758.88 299.384 758.12 298.944 757.144C298.504 756.16 298.284 755.016 298.284 753.712C298.284 752.432 298.508 751.3 298.956 750.316C299.404 749.332 300.024 748.564 300.816 748.012C301.616 747.452 302.544 747.172 303.6 747.172C304.624 747.172 305.5 747.42 306.228 747.916C306.956 748.412 307.512 749.116 307.896 750.028C308.288 750.932 308.484 752.012 308.484 753.268C308.484 753.484 308.48 753.68 308.472 753.856C308.464 754.024 308.456 754.172 308.448 754.3H299.88ZM303.636 748.564C302.62 748.564 301.764 748.924 301.068 749.644C300.38 750.364 299.992 751.468 299.904 752.956H307.068C307.036 751.476 306.704 750.376 306.072 749.656C305.44 748.928 304.628 748.564 303.636 748.564ZM313.899 760H312.135L316.887 753.34L312.759 747.4H314.595L317.787 752.284L321.051 747.4H322.839L318.651 753.268L323.391 760H321.459L317.727 754.384L313.899 760ZM327.617 762.412L326.381 761.872L336.713 740.632L337.925 741.244L327.617 762.412ZM341.972 760V747.4H343.22L343.34 749.236C343.836 748.58 344.488 748.072 345.296 747.712C346.112 747.352 346.872 747.172 347.576 747.172C348.864 747.172 349.78 747.5 350.324 748.156C350.876 748.812 351.152 749.72 351.152 750.88V760H349.664V752.476C349.664 751.516 349.612 750.736 349.508 750.136C349.404 749.536 349.18 749.1 348.836 748.828C348.492 748.548 347.952 748.408 347.216 748.408C346.656 748.408 346.128 748.532 345.632 748.78C345.144 749.02 344.712 749.32 344.336 749.68C343.968 750.032 343.676 750.376 343.46 750.712V760H341.972ZM364.918 757.516C364.918 758.028 365.006 758.404 365.182 758.644C365.358 758.876 365.63 759.048 365.998 759.16L365.59 760.252C365.11 760.18 364.682 760.004 364.306 759.724C363.93 759.444 363.666 759.016 363.514 758.44C363.074 759.024 362.522 759.472 361.858 759.784C361.202 760.088 360.458 760.24 359.626 760.24C358.378 760.24 357.398 759.888 356.686 759.184C355.974 758.48 355.618 757.54 355.618 756.364C355.618 755.084 356.114 754.104 357.106 753.424C358.106 752.744 359.558 752.404 361.462 752.404H363.37V751.18C363.37 750.196 363.086 749.508 362.518 749.116C361.958 748.716 361.19 748.516 360.214 748.516C359.79 748.516 359.31 748.564 358.774 748.66C358.238 748.756 357.642 748.92 356.986 749.152L356.554 747.928C357.314 747.648 358.002 747.452 358.618 747.34C359.242 747.228 359.846 747.172 360.43 747.172C361.91 747.172 363.026 747.536 363.778 748.264C364.538 748.984 364.918 749.94 364.918 751.132V757.516ZM359.914 759.052C360.602 759.052 361.246 758.884 361.846 758.548C362.446 758.212 362.954 757.744 363.37 757.144V753.544H361.282C359.786 753.544 358.742 753.808 358.15 754.336C357.558 754.856 357.262 755.548 357.262 756.412C357.262 757.284 357.478 757.944 357.91 758.392C358.342 758.832 359.01 759.052 359.914 759.052ZM380.845 747.4L376.153 760H374.437L369.805 747.4H371.353L375.361 758.488L379.285 747.4H380.845ZM393.7 757.516C393.7 758.028 393.788 758.404 393.964 758.644C394.14 758.876 394.412 759.048 394.78 759.16L394.372 760.252C393.892 760.18 393.464 760.004 393.088 759.724C392.712 759.444 392.448 759.016 392.296 758.44C391.856 759.024 391.304 759.472 390.64 759.784C389.984 760.088 389.24 760.24 388.408 760.24C387.16 760.24 386.18 759.888 385.468 759.184C384.756 758.48 384.4 757.54 384.4 756.364C384.4 755.084 384.896 754.104 385.888 753.424C386.888 752.744 388.34 752.404 390.244 752.404H392.152V751.18C392.152 750.196 391.868 749.508 391.3 749.116C390.74 748.716 389.972 748.516 388.996 748.516C388.572 748.516 388.092 748.564 387.556 748.66C387.02 748.756 386.424 748.92 385.768 749.152L385.336 747.928C386.096 747.648 386.784 747.452 387.4 747.34C388.024 747.228 388.628 747.172 389.212 747.172C390.692 747.172 391.808 747.536 392.56 748.264C393.32 748.984 393.7 749.94 393.7 751.132V757.516ZM388.696 759.052C389.384 759.052 390.028 758.884 390.628 758.548C391.228 758.212 391.736 757.744 392.152 757.144V753.544H390.064C388.568 753.544 387.524 753.808 386.932 754.336C386.34 754.856 386.044 755.548 386.044 756.412C386.044 757.284 386.26 757.944 386.692 758.392C387.124 758.832 387.792 759.052 388.696 759.052ZM399.534 760V747.4H400.782L400.902 749.236C401.398 748.58 402.05 748.072 402.858 747.712C403.674 747.352 404.434 747.172 405.138 747.172C406.426 747.172 407.342 747.5 407.886 748.156C408.438 748.812 408.714 749.72 408.714 750.88V760H407.226V752.476C407.226 751.516 407.174 750.736 407.07 750.136C406.966 749.536 406.742 749.1 406.398 748.828C406.054 748.548 405.514 748.408 404.778 748.408C404.218 748.408 403.69 748.532 403.194 748.78C402.706 749.02 402.274 749.32 401.898 749.68C401.53 750.032 401.238 750.376 401.022 750.712V760H399.534ZM421.581 742.096L423.069 742.3V760H421.773L421.581 758.26C421.077 758.98 420.513 759.492 419.889 759.796C419.273 760.092 418.637 760.24 417.981 760.24C416.869 760.24 415.953 759.968 415.233 759.424C414.521 758.872 413.993 758.108 413.649 757.132C413.305 756.148 413.133 755.016 413.133 753.736C413.133 752.48 413.325 751.36 413.709 750.376C414.101 749.384 414.661 748.604 415.389 748.036C416.125 747.46 417.013 747.172 418.053 747.172C418.821 747.172 419.493 747.308 420.069 747.58C420.645 747.844 421.149 748.236 421.581 748.756V742.096ZM418.425 748.456C417.257 748.456 416.361 748.9 415.737 749.788C415.121 750.668 414.813 751.98 414.813 753.724C414.813 754.828 414.937 755.772 415.185 756.556C415.441 757.332 415.817 757.924 416.313 758.332C416.809 758.74 417.429 758.944 418.173 758.944C418.973 758.944 419.649 758.72 420.201 758.272C420.761 757.824 421.221 757.332 421.581 756.796V750.244C421.213 749.676 420.753 749.236 420.201 748.924C419.657 748.612 419.065 748.456 418.425 748.456Z"
        fill="white" />
    <path
        d="M1515.53 761.474L1510.05 756C1509.4 755.333 1509 754.394 1509 753.474C1509 753.048 1509.24 752.383 1509.42 752L1514.47 741.474L1515.53 761.474Z"
        fill="#CFCFCF" />
    <path
        d="M1534.26 742.526L1528.79 737.053C1528.31 736.573 1527.32 736 1526.47 736C1525.75 736 1525.04 736.145 1524.58 736.421L1514.47 741.474L1534.26 742.526Z"
        fill="white" />
    <path d="M1522.05 768H1535.32V762.316L1525.42 759.158L1516.37 762.316L1522.05 768Z" fill="white" />
    <path
        d="M1514.47 758.526C1514.47 760.215 1514.69 760.629 1515.53 761.474L1516.37 762.316H1535.32L1526.05 751.789L1514.47 741.474V758.526Z"
        fill="#EFEFEF" />
    <path
        d="M1531.32 741.474H1514.47L1535.32 762.316H1541V749.263L1534.26 742.526C1533.32 741.577 1532.48 741.474 1531.32 741.474Z"
        fill="#CFCFCF" />
    <path
        d="M1515.74 761.684C1514.89 760.838 1514.68 760.006 1514.68 758.526V741.684L1514.47 741.474V758.526C1514.47 760.006 1514.47 760.417 1515.74 761.684Z"
        fill="white" />
    <path d="M1540.79 749.053V762.105H1535.11L1535.32 762.316H1541V749.263L1540.79 749.053Z"
        fill="#CFCFCF" />
    <path
        d="M1534.26 742.526C1533.22 741.482 1532.36 741.474 1531.11 741.474H1514.47L1514.68 741.684H1531.11C1531.73 741.684 1533.32 741.579 1534.26 742.526Z"
        fill="white" />
    <path
        d="M1540.79 749.053L1534.26 742.526L1528.79 737.053C1528.31 736.573 1527.32 736 1526.47 736C1525.75 736 1525.04 736.145 1524.58 736.421L1514.47 741.474L1509.42 752C1509.24 752.383 1509 753.048 1509 753.474C1509 754.394 1509.4 755.333 1510.05 756L1515.1 761.008C1515.22 761.156 1515.36 761.307 1515.53 761.474L1515.74 761.684L1516.37 762.316L1522.05 768H1535.32V762.316H1541V749.263L1540.79 749.053Z"
        fill="url(#paint0_radial_2_9)" />
    <path
        d="M1564.87 747.172C1566 747.172 1566.89 747.444 1567.56 747.988C1568.22 748.532 1568.7 749.296 1568.98 750.28C1569.27 751.256 1569.42 752.396 1569.42 753.7C1569.42 754.964 1569.24 756.088 1568.89 757.072C1568.54 758.056 1568.01 758.832 1567.29 759.4C1566.58 759.96 1565.67 760.24 1564.56 760.24C1563.12 760.24 1561.98 759.74 1561.12 758.74V764.812L1559.64 765.016V747.4H1560.86L1561.03 749.26C1561.48 748.62 1562.02 748.112 1562.67 747.736C1563.33 747.36 1564.06 747.172 1564.87 747.172ZM1564.6 748.444C1563.83 748.444 1563.14 748.68 1562.55 749.152C1561.96 749.616 1561.48 750.112 1561.12 750.64V757.168C1561.48 757.688 1561.93 758.104 1562.49 758.416C1563.05 758.728 1563.66 758.884 1564.32 758.884C1565.48 758.884 1566.35 758.456 1566.92 757.6C1567.5 756.744 1567.78 755.436 1567.78 753.676C1567.78 752.556 1567.67 751.608 1567.45 750.832C1567.22 750.056 1566.88 749.464 1566.4 749.056C1565.94 748.648 1565.34 748.444 1564.6 748.444ZM1575.51 747.4V756.412C1575.51 757.308 1575.7 757.964 1576.08 758.38C1576.46 758.788 1577.07 758.992 1577.89 758.992C1578.67 758.992 1579.41 758.772 1580.1 758.332C1580.79 757.884 1581.31 757.372 1581.68 756.796V747.4H1583.17V760H1581.92L1581.75 758.236C1581.24 758.876 1580.62 759.372 1579.88 759.724C1579.15 760.068 1578.41 760.24 1577.67 760.24C1576.46 760.24 1575.55 759.924 1574.94 759.292C1574.33 758.652 1574.03 757.752 1574.03 756.592V747.4H1575.51ZM1589.91 749.14C1590.39 748.508 1590.93 748.024 1591.55 747.688C1592.17 747.344 1592.86 747.172 1593.61 747.172C1594.75 747.172 1595.67 747.444 1596.36 747.988C1597.06 748.532 1597.56 749.296 1597.87 750.28C1598.19 751.256 1598.35 752.396 1598.35 753.7C1598.35 754.964 1598.16 756.088 1597.78 757.072C1597.4 758.056 1596.85 758.832 1596.11 759.4C1595.37 759.96 1594.47 760.24 1593.39 760.24C1591.88 760.24 1590.71 759.708 1589.86 758.644L1589.71 760H1588.42V742.3L1589.91 742.096V749.14ZM1593.06 758.944C1594.23 758.944 1595.12 758.508 1595.74 757.636C1596.36 756.756 1596.67 755.436 1596.67 753.676C1596.67 752.556 1596.55 751.608 1596.3 750.832C1596.06 750.056 1595.7 749.464 1595.21 749.056C1594.73 748.648 1594.13 748.444 1593.4 748.444C1592.61 748.444 1591.93 748.68 1591.33 749.152C1590.74 749.616 1590.27 750.112 1589.91 750.64V757.168C1590.27 757.704 1590.72 758.136 1591.27 758.464C1591.83 758.784 1592.43 758.944 1593.06 758.944ZM1605.42 758.272C1605.42 757.912 1605.51 757.588 1605.68 757.3C1605.84 757.004 1606.07 756.772 1606.36 756.604C1606.65 756.436 1606.98 756.352 1607.34 756.352C1607.73 756.352 1608.07 756.436 1608.36 756.604C1608.66 756.772 1608.89 757.004 1609.06 757.3C1609.23 757.588 1609.31 757.912 1609.31 758.272C1609.31 758.64 1609.23 758.976 1609.06 759.28C1608.89 759.576 1608.66 759.812 1608.36 759.988C1608.07 760.156 1607.73 760.24 1607.34 760.24C1606.98 760.24 1606.65 760.156 1606.36 759.988C1606.07 759.812 1605.84 759.576 1605.68 759.28C1605.51 758.976 1605.42 758.64 1605.42 758.272ZM1624.85 742.096L1626.34 742.3V760H1625.05L1624.85 758.26C1624.35 758.98 1623.79 759.492 1623.16 759.796C1622.55 760.092 1621.91 760.24 1621.25 760.24C1620.14 760.24 1619.23 759.968 1618.51 759.424C1617.79 758.872 1617.27 758.108 1616.92 757.132C1616.58 756.148 1616.41 755.016 1616.41 753.736C1616.41 752.48 1616.6 751.36 1616.98 750.376C1617.37 749.384 1617.93 748.604 1618.66 748.036C1619.4 747.46 1620.29 747.172 1621.33 747.172C1622.09 747.172 1622.77 747.308 1623.34 747.58C1623.92 747.844 1624.42 748.236 1624.85 748.756V742.096ZM1621.7 748.456C1620.53 748.456 1619.63 748.9 1619.01 749.788C1618.39 750.668 1618.09 751.98 1618.09 753.724C1618.09 754.828 1618.21 755.772 1618.46 756.556C1618.71 757.332 1619.09 757.924 1619.59 758.332C1620.08 758.74 1620.7 758.944 1621.45 758.944C1622.25 758.944 1622.92 758.72 1623.47 758.272C1624.03 757.824 1624.49 757.332 1624.85 756.796V750.244C1624.49 749.676 1624.03 749.236 1623.47 748.924C1622.93 748.612 1622.34 748.456 1621.7 748.456ZM1632.67 754.3C1632.69 755.356 1632.88 756.224 1633.23 756.904C1633.59 757.576 1634.06 758.072 1634.65 758.392C1635.23 758.712 1635.87 758.872 1636.56 758.872C1637.22 758.872 1637.81 758.776 1638.32 758.584C1638.84 758.392 1639.38 758.1 1639.95 757.708L1640.73 758.824C1640.15 759.272 1639.49 759.62 1638.75 759.868C1638.02 760.116 1637.31 760.24 1636.62 760.24C1635.46 760.24 1634.46 759.968 1633.63 759.424C1632.8 758.88 1632.17 758.12 1631.73 757.144C1631.29 756.16 1631.07 755.016 1631.07 753.712C1631.07 752.432 1631.3 751.3 1631.74 750.316C1632.19 749.332 1632.81 748.564 1633.6 748.012C1634.4 747.452 1635.33 747.172 1636.39 747.172C1637.41 747.172 1638.29 747.42 1639.02 747.916C1639.74 748.412 1640.3 749.116 1640.68 750.028C1641.08 750.932 1641.27 752.012 1641.27 753.268C1641.27 753.484 1641.27 753.68 1641.26 753.856C1641.25 754.024 1641.24 754.172 1641.24 754.3H1632.67ZM1636.42 748.564C1635.41 748.564 1634.55 748.924 1633.86 749.644C1633.17 750.364 1632.78 751.468 1632.69 752.956H1639.86C1639.82 751.476 1639.49 750.376 1638.86 749.656C1638.23 748.928 1637.42 748.564 1636.42 748.564ZM1656.07 747.4L1651.38 760H1649.66L1645.03 747.4H1646.58L1650.59 758.488L1654.51 747.4H1656.07ZM1660.41 762.412L1659.17 761.872L1669.5 740.632L1670.71 741.244L1660.41 762.412ZM1679.99 747.172C1681.12 747.172 1682.02 747.444 1682.68 747.988C1683.34 748.532 1683.82 749.296 1684.11 750.28C1684.4 751.256 1684.54 752.396 1684.54 753.7C1684.54 754.964 1684.36 756.088 1684.01 757.072C1683.67 758.056 1683.14 758.832 1682.42 759.4C1681.7 759.96 1680.79 760.24 1679.68 760.24C1678.25 760.24 1677.1 759.74 1676.25 758.74V764.812L1674.76 765.016V747.4H1675.98L1676.15 749.26C1676.6 748.62 1677.15 748.112 1677.8 747.736C1678.45 747.36 1679.18 747.172 1679.99 747.172ZM1679.73 748.444C1678.95 748.444 1678.27 748.68 1677.68 749.152C1677.08 749.616 1676.61 750.112 1676.25 750.64V757.168C1676.6 757.688 1677.06 758.104 1677.62 758.416C1678.18 758.728 1678.78 758.884 1679.44 758.884C1680.61 758.884 1681.48 758.456 1682.04 757.6C1682.62 756.744 1682.91 755.436 1682.91 753.676C1682.91 752.556 1682.8 751.608 1682.57 750.832C1682.35 750.056 1682 749.464 1681.53 749.056C1681.06 748.648 1680.46 748.444 1679.73 748.444ZM1697.71 757.516C1697.71 758.028 1697.8 758.404 1697.97 758.644C1698.15 758.876 1698.42 759.048 1698.79 759.16L1698.38 760.252C1697.9 760.18 1697.47 760.004 1697.1 759.724C1696.72 759.444 1696.46 759.016 1696.3 758.44C1695.86 759.024 1695.31 759.472 1694.65 759.784C1693.99 760.088 1693.25 760.24 1692.42 760.24C1691.17 760.24 1690.19 759.888 1689.48 759.184C1688.76 758.48 1688.41 757.54 1688.41 756.364C1688.41 755.084 1688.9 754.104 1689.9 753.424C1690.9 752.744 1692.35 752.404 1694.25 752.404H1696.16V751.18C1696.16 750.196 1695.88 749.508 1695.31 749.116C1694.75 748.716 1693.98 748.516 1693 748.516C1692.58 748.516 1692.1 748.564 1691.56 748.66C1691.03 748.756 1690.43 748.92 1689.78 749.152L1689.34 747.928C1690.1 747.648 1690.79 747.452 1691.41 747.34C1692.03 747.228 1692.64 747.172 1693.22 747.172C1694.7 747.172 1695.82 747.536 1696.57 748.264C1697.33 748.984 1697.71 749.94 1697.71 751.132V757.516ZM1692.7 759.052C1693.39 759.052 1694.04 758.884 1694.64 758.548C1695.24 758.212 1695.74 757.744 1696.16 757.144V753.544H1694.07C1692.58 753.544 1691.53 753.808 1690.94 754.336C1690.35 754.856 1690.05 755.548 1690.05 756.412C1690.05 757.284 1690.27 757.944 1690.7 758.392C1691.13 758.832 1691.8 759.052 1692.7 759.052ZM1708.94 758.872C1709.61 758.872 1710.23 758.768 1710.8 758.56C1711.38 758.352 1711.9 758.084 1712.36 757.756L1713.14 758.764C1712.59 759.228 1711.93 759.592 1711.16 759.856C1710.39 760.112 1709.67 760.24 1709 760.24C1707.78 760.24 1706.74 759.976 1705.88 759.448C1705.03 758.912 1704.39 758.156 1703.94 757.18C1703.5 756.204 1703.28 755.06 1703.28 753.748C1703.28 752.5 1703.5 751.38 1703.94 750.388C1704.39 749.396 1705.03 748.612 1705.88 748.036C1706.74 747.46 1707.78 747.172 1709.01 747.172C1709.77 747.172 1710.5 747.292 1711.19 747.532C1711.88 747.772 1712.52 748.128 1713.11 748.6L1712.31 749.668C1711.75 749.276 1711.18 748.984 1710.62 748.792C1710.07 748.592 1709.51 748.492 1708.94 748.492C1707.78 748.492 1706.82 748.932 1706.06 749.812C1705.31 750.692 1704.93 752.004 1704.93 753.748C1704.93 754.924 1705.11 755.892 1705.45 756.652C1705.79 757.404 1706.27 757.964 1706.87 758.332C1707.47 758.692 1708.17 758.872 1708.94 758.872ZM1728.07 747.4L1721.94 753.1L1728.82 760H1726.67L1719.84 753.124L1725.85 747.4H1728.07ZM1719.59 742.096V760H1718.1V742.3L1719.59 742.096ZM1740.88 757.516C1740.88 758.028 1740.97 758.404 1741.14 758.644C1741.32 758.876 1741.59 759.048 1741.96 759.16L1741.55 760.252C1741.07 760.18 1740.64 760.004 1740.27 759.724C1739.89 759.444 1739.63 759.016 1739.48 758.44C1739.04 759.024 1738.48 759.472 1737.82 759.784C1737.16 760.088 1736.42 760.24 1735.59 760.24C1734.34 760.24 1733.36 759.888 1732.65 759.184C1731.94 758.48 1731.58 757.54 1731.58 756.364C1731.58 755.084 1732.08 754.104 1733.07 753.424C1734.07 752.744 1735.52 752.404 1737.42 752.404H1739.33V751.18C1739.33 750.196 1739.05 749.508 1738.48 749.116C1737.92 748.716 1737.15 748.516 1736.18 748.516C1735.75 748.516 1735.27 748.564 1734.74 748.66C1734.2 748.756 1733.6 748.92 1732.95 749.152L1732.52 747.928C1733.28 747.648 1733.96 747.452 1734.58 747.34C1735.2 747.228 1735.81 747.172 1736.39 747.172C1737.87 747.172 1738.99 747.536 1739.74 748.264C1740.5 748.984 1740.88 749.94 1740.88 751.132V757.516ZM1735.88 759.052C1736.56 759.052 1737.21 758.884 1737.81 758.548C1738.41 758.212 1738.92 757.744 1739.33 757.144V753.544H1737.24C1735.75 753.544 1734.7 753.808 1734.11 754.336C1733.52 754.856 1733.22 755.548 1733.22 756.412C1733.22 757.284 1733.44 757.944 1733.87 758.392C1734.3 758.832 1734.97 759.052 1735.88 759.052ZM1756.67 746.26L1757.23 747.892C1756.66 748.052 1756.07 748.148 1755.46 748.18C1754.85 748.212 1754.21 748.228 1753.52 748.228C1754.23 748.556 1754.76 748.992 1755.11 749.536C1755.47 750.072 1755.64 750.684 1755.64 751.372C1755.64 752.204 1755.46 752.948 1755.1 753.604C1754.74 754.252 1754.22 754.76 1753.54 755.128C1752.87 755.496 1752.05 755.68 1751.08 755.68C1750.61 755.68 1750.23 755.66 1749.93 755.62C1749.63 755.572 1749.35 755.5 1749.07 755.404C1748.87 755.556 1748.69 755.756 1748.55 756.004C1748.41 756.252 1748.35 756.512 1748.35 756.784C1748.35 757.112 1748.47 757.384 1748.73 757.6C1748.99 757.816 1749.46 757.924 1750.12 757.924H1752.45C1753.26 757.924 1753.99 758.072 1754.65 758.368C1755.31 758.664 1755.83 759.064 1756.22 759.568C1756.61 760.072 1756.81 760.64 1756.81 761.272C1756.81 762.496 1756.29 763.424 1755.26 764.056C1754.23 764.696 1752.81 765.016 1751 765.016C1749.74 765.016 1748.74 764.884 1748 764.62C1747.25 764.364 1746.72 763.96 1746.39 763.408C1746.07 762.864 1745.91 762.16 1745.91 761.296H1747.28C1747.28 761.824 1747.38 762.26 1747.58 762.604C1747.79 762.948 1748.15 763.204 1748.68 763.372C1749.21 763.548 1749.97 763.636 1750.95 763.636C1751.92 763.636 1752.72 763.552 1753.35 763.384C1753.99 763.224 1754.47 762.976 1754.79 762.64C1755.11 762.304 1755.27 761.88 1755.27 761.368C1755.27 760.704 1754.96 760.208 1754.35 759.88C1753.73 759.552 1752.99 759.388 1752.13 759.388H1749.8C1748.79 759.388 1748.05 759.152 1747.57 758.68C1747.09 758.208 1746.85 757.668 1746.85 757.06C1746.85 756.676 1746.96 756.3 1747.18 755.932C1747.41 755.556 1747.76 755.216 1748.21 754.912C1747.52 754.544 1747 754.08 1746.65 753.52C1746.31 752.96 1746.14 752.276 1746.14 751.468C1746.14 750.644 1746.34 749.908 1746.75 749.26C1747.16 748.612 1747.73 748.1 1748.45 747.724C1749.18 747.348 1750.03 747.16 1750.99 747.16C1752.08 747.144 1752.95 747.104 1753.6 747.04C1754.26 746.968 1754.81 746.868 1755.26 746.74C1755.71 746.612 1756.19 746.452 1756.67 746.26ZM1750.95 748.336C1749.81 748.336 1748.98 748.636 1748.45 749.236C1747.93 749.836 1747.67 750.588 1747.67 751.492C1747.67 752.388 1747.94 753.14 1748.48 753.748C1749.01 754.348 1749.86 754.648 1751.02 754.648C1751.99 754.648 1752.73 754.368 1753.24 753.808C1753.75 753.248 1754.01 752.472 1754.01 751.48C1754.01 750.456 1753.75 749.676 1753.24 749.14C1752.73 748.604 1751.97 748.336 1750.95 748.336ZM1762.18 754.3C1762.21 755.356 1762.4 756.224 1762.75 756.904C1763.11 757.576 1763.58 758.072 1764.16 758.392C1764.75 758.712 1765.38 758.872 1766.07 758.872C1766.74 758.872 1767.32 758.776 1767.84 758.584C1768.36 758.392 1768.9 758.1 1769.47 757.708L1770.25 758.824C1769.66 759.272 1769 759.62 1768.27 759.868C1767.54 760.116 1766.83 760.24 1766.13 760.24C1764.97 760.24 1763.98 759.968 1763.14 759.424C1762.32 758.88 1761.69 758.12 1761.25 757.144C1760.81 756.16 1760.59 755.016 1760.59 753.712C1760.59 752.432 1760.81 751.3 1761.26 750.316C1761.71 749.332 1762.33 748.564 1763.12 748.012C1763.92 747.452 1764.85 747.172 1765.9 747.172C1766.93 747.172 1767.8 747.42 1768.53 747.916C1769.26 748.412 1769.82 749.116 1770.2 750.028C1770.59 750.932 1770.79 752.012 1770.79 753.268C1770.79 753.484 1770.78 753.68 1770.78 753.856C1770.77 754.024 1770.76 754.172 1770.75 754.3H1762.18ZM1765.94 748.564C1764.92 748.564 1764.07 748.924 1763.37 749.644C1762.68 750.364 1762.3 751.468 1762.21 752.956H1769.37C1769.34 751.476 1769.01 750.376 1768.38 749.656C1767.74 748.928 1766.93 748.564 1765.94 748.564ZM1779.55 758.884C1780.62 758.884 1781.46 758.68 1782.07 758.272C1782.69 757.856 1783 757.312 1783 756.64C1783 756.224 1782.93 755.864 1782.79 755.56C1782.66 755.248 1782.38 754.972 1781.94 754.732C1781.51 754.484 1780.84 754.252 1779.94 754.036C1779.03 753.812 1778.25 753.564 1777.58 753.292C1776.93 753.02 1776.42 752.664 1776.06 752.224C1775.7 751.784 1775.52 751.2 1775.52 750.472C1775.52 749.776 1775.72 749.184 1776.11 748.696C1776.51 748.2 1777.05 747.824 1777.74 747.568C1778.44 747.304 1779.22 747.172 1780.09 747.172C1781.08 747.172 1781.93 747.304 1782.66 747.568C1783.4 747.832 1784.01 748.152 1784.51 748.528L1783.81 749.632C1783.35 749.304 1782.83 749.032 1782.26 748.816C1781.7 748.6 1780.98 748.492 1780.1 748.492C1778.99 748.492 1778.21 748.668 1777.76 749.02C1777.32 749.372 1777.09 749.816 1777.09 750.352C1777.09 750.768 1777.2 751.112 1777.42 751.384C1777.64 751.648 1778 751.884 1778.51 752.092C1779.01 752.292 1779.69 752.508 1780.55 752.74C1781.37 752.956 1782.09 753.216 1782.71 753.52C1783.32 753.824 1783.8 754.22 1784.15 754.708C1784.49 755.196 1784.66 755.828 1784.66 756.604C1784.66 757.492 1784.41 758.204 1783.91 758.74C1783.41 759.268 1782.77 759.652 1781.99 759.892C1781.2 760.124 1780.39 760.24 1779.54 760.24C1778.43 760.24 1777.49 760.076 1776.72 759.748C1775.96 759.42 1775.33 759.036 1774.82 758.596L1775.75 757.504C1776.24 757.92 1776.82 758.256 1777.46 758.512C1778.11 758.76 1778.81 758.884 1779.55 758.884ZM1789.92 762.412L1788.69 761.872L1799.02 740.632L1800.23 741.244L1789.92 762.412ZM1804.28 760V747.4H1805.52L1805.64 749.236C1806.14 748.58 1806.79 748.072 1807.6 747.712C1808.42 747.352 1809.18 747.172 1809.88 747.172C1811.17 747.172 1812.08 747.5 1812.63 748.156C1813.18 748.812 1813.46 749.72 1813.46 750.88V760H1811.97V752.476C1811.97 751.516 1811.92 750.736 1811.81 750.136C1811.71 749.536 1811.48 749.1 1811.14 748.828C1810.8 748.548 1810.26 748.408 1809.52 748.408C1808.96 748.408 1808.43 748.532 1807.94 748.78C1807.45 749.02 1807.02 749.32 1806.64 749.68C1806.27 750.032 1805.98 750.376 1805.76 750.712V760H1804.28ZM1827.22 757.516C1827.22 758.028 1827.31 758.404 1827.49 758.644C1827.66 758.876 1827.94 759.048 1828.3 759.16L1827.9 760.252C1827.42 760.18 1826.99 760.004 1826.61 759.724C1826.24 759.444 1825.97 759.016 1825.82 758.44C1825.38 759.024 1824.83 759.472 1824.16 759.784C1823.51 760.088 1822.76 760.24 1821.93 760.24C1820.68 760.24 1819.7 759.888 1818.99 759.184C1818.28 758.48 1817.92 757.54 1817.92 756.364C1817.92 755.084 1818.42 754.104 1819.41 753.424C1820.41 752.744 1821.86 752.404 1823.77 752.404H1825.68V751.18C1825.68 750.196 1825.39 749.508 1824.82 749.116C1824.26 748.716 1823.5 748.516 1822.52 748.516C1822.1 748.516 1821.62 748.564 1821.08 748.66C1820.54 748.756 1819.95 748.92 1819.29 749.152L1818.86 747.928C1819.62 747.648 1820.31 747.452 1820.92 747.34C1821.55 747.228 1822.15 747.172 1822.74 747.172C1824.22 747.172 1825.33 747.536 1826.08 748.264C1826.84 748.984 1827.22 749.94 1827.22 751.132V757.516ZM1822.22 759.052C1822.91 759.052 1823.55 758.884 1824.15 758.548C1824.75 758.212 1825.26 757.744 1825.68 757.144V753.544H1823.59C1822.09 753.544 1821.05 753.808 1820.46 754.336C1819.86 754.856 1819.57 755.548 1819.57 756.412C1819.57 757.284 1819.78 757.944 1820.22 758.392C1820.65 758.832 1821.32 759.052 1822.22 759.052ZM1843.15 747.4L1838.46 760H1836.74L1832.11 747.4H1833.66L1837.67 758.488L1841.59 747.4H1843.15ZM1856 757.516C1856 758.028 1856.09 758.404 1856.27 758.644C1856.44 758.876 1856.72 759.048 1857.08 759.16L1856.68 760.252C1856.2 760.18 1855.77 760.004 1855.39 759.724C1855.02 759.444 1854.75 759.016 1854.6 758.44C1854.16 759.024 1853.61 759.472 1852.94 759.784C1852.29 760.088 1851.54 760.24 1850.71 760.24C1849.46 760.24 1848.48 759.888 1847.77 759.184C1847.06 758.48 1846.7 757.54 1846.7 756.364C1846.7 755.084 1847.2 754.104 1848.19 753.424C1849.19 752.744 1850.64 752.404 1852.55 752.404H1854.46V751.18C1854.46 750.196 1854.17 749.508 1853.6 749.116C1853.04 748.716 1852.28 748.516 1851.3 748.516C1850.88 748.516 1850.4 748.564 1849.86 748.66C1849.32 748.756 1848.73 748.92 1848.07 749.152L1847.64 747.928C1848.4 747.648 1849.09 747.452 1849.7 747.34C1850.33 747.228 1850.93 747.172 1851.52 747.172C1853 747.172 1854.11 747.536 1854.86 748.264C1855.62 748.984 1856 749.94 1856 751.132V757.516ZM1851 759.052C1851.69 759.052 1852.33 758.884 1852.93 758.548C1853.53 758.212 1854.04 757.744 1854.46 757.144V753.544H1852.37C1850.87 753.544 1849.83 753.808 1849.24 754.336C1848.64 754.856 1848.35 755.548 1848.35 756.412C1848.35 757.284 1848.56 757.944 1849 758.392C1849.43 758.832 1850.1 759.052 1851 759.052ZM1861.84 760V747.4H1863.09L1863.21 749.236C1863.7 748.58 1864.35 748.072 1865.16 747.712C1865.98 747.352 1866.74 747.172 1867.44 747.172C1868.73 747.172 1869.65 747.5 1870.19 748.156C1870.74 748.812 1871.02 749.72 1871.02 750.88V760H1869.53V752.476C1869.53 751.516 1869.48 750.736 1869.37 750.136C1869.27 749.536 1869.05 749.1 1868.7 748.828C1868.36 748.548 1867.82 748.408 1867.08 748.408C1866.52 748.408 1865.99 748.532 1865.5 748.78C1865.01 749.02 1864.58 749.32 1864.2 749.68C1863.83 750.032 1863.54 750.376 1863.33 750.712V760H1861.84ZM1883.89 742.096L1885.37 742.3V760H1884.08L1883.89 758.26C1883.38 758.98 1882.82 759.492 1882.19 759.796C1881.58 760.092 1880.94 760.24 1880.29 760.24C1879.17 760.24 1878.26 759.968 1877.54 759.424C1876.83 758.872 1876.3 758.108 1875.95 757.132C1875.61 756.148 1875.44 755.016 1875.44 753.736C1875.44 752.48 1875.63 751.36 1876.01 750.376C1876.41 749.384 1876.97 748.604 1877.69 748.036C1878.43 747.46 1879.32 747.172 1880.36 747.172C1881.13 747.172 1881.8 747.308 1882.37 747.58C1882.95 747.844 1883.45 748.236 1883.89 748.756V742.096ZM1880.73 748.456C1879.56 748.456 1878.67 748.9 1878.04 749.788C1877.43 750.668 1877.12 751.98 1877.12 753.724C1877.12 754.828 1877.24 755.772 1877.49 756.556C1877.75 757.332 1878.12 757.924 1878.62 758.332C1879.11 758.74 1879.73 758.944 1880.48 758.944C1881.28 758.944 1881.95 758.72 1882.51 758.272C1883.07 757.824 1883.53 757.332 1883.89 756.796V750.244C1883.52 749.676 1883.06 749.236 1882.51 748.924C1881.96 748.612 1881.37 748.456 1880.73 748.456Z"
        fill="white" />
    <defs>
        <radialGradient id="paint0_radial_2_9" cx="0" cy="0" r="1" gradientUnits="userSpaceOnUse"
            gradientTransform="translate(1525 752) scale(16)">
            <stop stop-color="white" stop-opacity="0.1" />
            <stop offset="1" stop-color="white" stop-opacity="0" />
        </radialGradient>
    </defs>
</svg>