<svg width="164" height="180" viewBox="0 0 164 180" fill="none" xmlns="http://www.w3.org/2000/svg">
    <path
        d="M164 105.522L94.2626 179.578L92.209 171.914C90.7638 166.521 90.3659 160.895 91.0351 155.31L92.1325 146.154C93.7807 132.398 91.5366 118.576 85.6343 106.128L81.1413 96.5794L63.3253 99.8506C50.7879 102.152 39.0008 107.496 29.1153 115.363L24.9521 118.591C22.3883 120.58 19.1055 121.492 15.8807 121.113C10.2422 120.449 5.66443 116.619 4.26355 111.39L0 95.4786L69.9798 20.6647L64.4427 0C71.7111 3.93006 77.9429 9.68532 81.7706 16.7692C115.978 24.2442 144.17 48.9174 155.724 80.3997L164 105.522Z"
        fill="white" />
</svg>