<svg width="172" height="200" viewBox="0 0 172 200" fill="none" xmlns="http://www.w3.org/2000/svg">
    <path
        d="M172 140.959L76.482 200V191.241C76.482 185.077 77.6651 178.965 79.9744 173.201L83.7603 163.752C89.448 149.555 91.0042 134.176 88.2672 119.216L86.2046 107.751L66.2732 106.149C52.2473 105.021 38.152 107.352 25.3639 112.915L20.0024 115.168C16.7004 116.556 12.9395 116.591 9.60941 115.265C3.78663 112.947 -2.99565e-06 107.554 -2.99565e-06 101.579V83.3948L95.9927 23.6162V0C102.62 6.26717 107.621 14.1844 109.678 22.8313C144.017 40.5752 167.027 74.938 170.353 111.808L172 140.959Z"
        fill="#220056" />
</svg>