<svg width="1000" height="202" viewBox="0 0 1000 202" fill="none" xmlns="http://www.w3.org/2000/svg">
<path d="M172 140.959L76.482 200V191.241C76.482 185.077 77.6651 178.965 79.9744 173.201L83.7603 163.752C89.448 149.555 91.0042 134.176 88.2672 119.216L86.2046 107.751L66.2732 106.149C52.2473 105.021 38.152 107.352 25.3639 112.915L20.0024 115.168C16.7004 116.556 12.9395 116.591 9.60941 115.265C3.78663 112.947 -2.99565e-06 107.554 -2.99565e-06 101.579V83.3948L95.9927 23.6162V0C102.62 6.26717 107.621 14.1844 109.678 22.8313C144.017 40.5752 167.027 74.938 170.353 111.808L172 140.959Z" fill="#220056"/>
<path d="M219.968 200H216.64V20.8H225.344L331.84 186.432V20.8H335.168V200H316.48L219.968 51.52V200ZM467.718 200C456.113 200 448.177 197.781 443.91 193.344C439.985 189.589 438.022 186.347 438.022 183.616V178.24C429.659 193.429 416.262 201.024 397.83 201.024C376.326 201.024 364.123 191.296 361.222 171.84C360.881 169.792 360.71 167.744 360.71 165.696C360.71 163.477 361.051 161.088 361.734 158.528C362.417 155.968 364.379 153.152 367.622 150.08C374.107 143.936 388.358 140.181 410.374 138.816C415.835 138.304 420.87 138.048 425.478 138.048C430.086 138.048 434.267 138.219 438.022 138.56V96.064C437.681 95.8933 437.681 95.1253 438.022 93.76C438.363 92.224 438.022 90.3467 436.998 88.128C436.145 85.7387 434.95 83.4347 433.414 81.216C431.878 78.9973 429.147 77.12 425.222 75.584C421.297 73.8773 416.177 73.024 409.862 73.024C403.547 73.024 396.123 74.2187 387.59 76.608C379.227 78.8267 373.083 81.0453 369.158 83.264L368.134 81.472C383.323 74.4747 398.769 70.976 414.47 70.976C432.049 70.976 443.654 74.1333 449.286 80.448C453.723 85.3973 455.942 90.6027 455.942 96.064V181.824C455.942 186.773 456.881 190.613 458.758 193.344C460.806 195.904 462.854 197.269 464.902 197.44L467.718 197.952H475.654V200H467.718ZM401.926 198.976C410.971 198.976 419.078 195.904 426.246 189.76C433.585 183.445 437.51 177.387 438.022 171.584V140.608C433.414 140.267 428.721 140.096 423.942 140.096C419.334 140.096 414.726 140.352 410.118 140.864C397.147 142.4 388.699 145.301 384.774 149.568C380.849 153.835 378.886 159.723 378.886 167.232C378.886 168.597 378.971 170.133 379.142 171.84C380.678 189.931 388.273 198.976 401.926 198.976ZM576.454 73.536L577.99 72C578.673 72.3413 579.526 73.3653 580.55 75.072C581.745 76.7787 582.427 78.3147 582.598 79.68C582.939 81.0453 583.11 82.3253 583.11 83.52C583.11 88.128 582.086 92.8213 580.038 97.6L530.886 200H528.326L480.71 72H498.63L537.798 177.984L577.478 97.6C579.526 94.016 580.55 89.7493 580.55 84.8C580.55 79.8507 579.185 76.096 576.454 73.536ZM702.968 200C691.363 200 683.427 197.781 679.16 193.344C675.235 189.589 673.272 186.347 673.272 183.616V178.24C664.909 193.429 651.512 201.024 633.08 201.024C611.576 201.024 599.373 191.296 596.472 171.84C596.131 169.792 595.96 167.744 595.96 165.696C595.96 163.477 596.301 161.088 596.984 158.528C597.667 155.968 599.629 153.152 602.872 150.08C609.357 143.936 623.608 140.181 645.624 138.816C651.085 138.304 656.12 138.048 660.728 138.048C665.336 138.048 669.517 138.219 673.272 138.56V96.064C672.931 95.8933 672.931 95.1253 673.272 93.76C673.613 92.224 673.272 90.3467 672.248 88.128C671.395 85.7387 670.2 83.4347 668.664 81.216C667.128 78.9973 664.397 77.12 660.472 75.584C656.547 73.8773 651.427 73.024 645.112 73.024C638.797 73.024 631.373 74.2187 622.84 76.608C614.477 78.8267 608.333 81.0453 604.408 83.264L603.384 81.472C618.573 74.4747 634.019 70.976 649.72 70.976C667.299 70.976 678.904 74.1333 684.536 80.448C688.973 85.3973 691.192 90.6027 691.192 96.064V181.824C691.192 186.773 692.131 190.613 694.008 193.344C696.056 195.904 698.104 197.269 700.152 197.44L702.968 197.952H710.904V200H702.968ZM637.176 198.976C646.221 198.976 654.328 195.904 661.496 189.76C668.835 183.445 672.76 177.387 673.272 171.584V140.608C668.664 140.267 663.971 140.096 659.192 140.096C654.584 140.096 649.976 140.352 645.368 140.864C632.397 142.4 623.949 145.301 620.024 149.568C616.099 153.835 614.136 159.723 614.136 167.232C614.136 168.597 614.221 170.133 614.392 171.84C615.928 189.931 623.523 198.976 637.176 198.976ZM831.23 200C824.233 200 818.857 198.464 815.102 195.392C811.518 192.32 809.641 189.248 809.47 186.176L809.214 181.824V101.44C809.214 87.9573 805.715 79.3387 798.718 75.584C795.134 73.8773 790.697 73.024 785.406 73.024C774.483 73.024 764.67 77.376 755.966 86.08C747.262 94.6133 742.91 102.293 742.91 109.12V200H724.99V72H742.91V101.184C745.811 93.8453 751.187 87.0187 759.038 80.704C766.889 74.2187 775.507 70.976 784.894 70.976C794.281 70.976 801.875 71.9147 807.678 73.792C813.651 75.4987 818.003 77.9733 820.734 81.216C825.001 86.5067 827.134 93.3333 827.134 101.696V181.824C827.134 186.773 828.073 190.613 829.95 193.344C831.998 195.904 834.046 197.269 836.094 197.44L838.91 197.952H846.846V200H831.23ZM857.24 140.608C857.24 118.421 862.616 101.269 873.368 89.152C884.12 77.0347 900.248 70.976 921.752 70.976C931.821 70.976 941.976 73.536 952.216 78.656V8.256H970.136V181.824C970.136 186.773 971.075 190.613 972.952 193.344C975 195.904 977.048 197.269 979.096 197.44L981.912 197.952H989.848V200H974.232C967.235 200 961.859 198.464 958.104 195.392C954.52 192.32 952.643 189.248 952.472 186.176L952.216 181.824V177.728C948.973 183.701 943.597 188.992 936.088 193.6C928.579 198.208 919.704 200.512 909.464 200.512C874.648 199.659 857.24 179.691 857.24 140.608ZM909.72 198.464C921.155 198.464 930.968 195.392 939.16 189.248C947.352 183.104 951.704 177.045 952.216 171.072V80.96C940.099 75.6693 929.688 73.024 920.984 73.024C905.795 73.024 894.36 78.9973 886.68 90.944C879 102.72 875.16 119.275 875.16 140.608C875.16 179.179 886.68 198.464 909.72 198.464Z" fill="#220056"/>
</svg>
