<svg width="1000" height="194" viewBox="0 0 1000 194" fill="none" xmlns="http://www.w3.org/2000/svg">
    <path
        d="M164 117.522L94.2626 191.578L92.209 183.914C90.7638 178.521 90.3659 172.895 91.0351 167.31L92.1325 158.154C93.7807 144.398 91.5366 130.576 85.6343 118.128L81.1413 108.579L63.3253 111.851C50.7879 114.152 39.0008 119.496 29.1153 127.363L24.9521 130.591C22.3883 132.58 19.1055 133.492 15.8807 133.113C10.2422 132.449 5.66443 128.619 4.26355 123.39L0 107.479L69.9798 32.6647L64.4427 12C71.7111 15.9301 77.9429 21.6853 81.7706 28.7692C115.978 36.2442 144.17 60.9174 155.724 92.3997L164 117.522Z"
        fill="white" />
    <path
        d="M219.968 192H216.64V12.8H225.344L331.84 178.432V12.8H335.168V192H316.48L219.968 43.52V192ZM467.718 192C456.113 192 448.177 189.781 443.91 185.344C439.985 181.589 438.022 178.347 438.022 175.616V170.24C429.659 185.429 416.262 193.024 397.83 193.024C376.326 193.024 364.123 183.296 361.222 163.84C360.881 161.792 360.71 159.744 360.71 157.696C360.71 155.477 361.051 153.088 361.734 150.528C362.417 147.968 364.379 145.152 367.622 142.08C374.107 135.936 388.358 132.181 410.374 130.816C415.835 130.304 420.87 130.048 425.478 130.048C430.086 130.048 434.267 130.219 438.022 130.56V88.064C437.681 87.8933 437.681 87.1253 438.022 85.76C438.363 84.224 438.022 82.3466 436.998 80.128C436.145 77.7386 434.95 75.4346 433.414 73.216C431.878 70.9973 429.147 69.12 425.222 67.584C421.297 65.8773 416.177 65.024 409.862 65.024C403.547 65.024 396.123 66.2186 387.59 68.608C379.227 70.8266 373.083 73.0453 369.158 75.264L368.134 73.472C383.323 66.4746 398.769 62.976 414.47 62.976C432.049 62.976 443.654 66.1333 449.286 72.448C453.723 77.3973 455.942 82.6026 455.942 88.064V173.824C455.942 178.773 456.881 182.613 458.758 185.344C460.806 187.904 462.854 189.269 464.902 189.44L467.718 189.952H475.654V192H467.718ZM401.926 190.976C410.971 190.976 419.078 187.904 426.246 181.76C433.585 175.445 437.51 169.387 438.022 163.584V132.608C433.414 132.267 428.721 132.096 423.942 132.096C419.334 132.096 414.726 132.352 410.118 132.864C397.147 134.4 388.699 137.301 384.774 141.568C380.849 145.835 378.886 151.723 378.886 159.232C378.886 160.597 378.971 162.133 379.142 163.84C380.678 181.931 388.273 190.976 401.926 190.976ZM576.454 65.536L577.99 64C578.673 64.3413 579.526 65.3653 580.55 67.072C581.745 68.7786 582.427 70.3146 582.598 71.68C582.939 73.0453 583.11 74.3253 583.11 75.52C583.11 80.128 582.086 84.8213 580.038 89.6L530.886 192H528.326L480.71 64H498.63L537.798 169.984L577.478 89.6C579.526 86.016 580.55 81.7493 580.55 76.8C580.55 71.8506 579.185 68.096 576.454 65.536ZM702.968 192C691.363 192 683.427 189.781 679.16 185.344C675.235 181.589 673.272 178.347 673.272 175.616V170.24C664.909 185.429 651.512 193.024 633.08 193.024C611.576 193.024 599.373 183.296 596.472 163.84C596.131 161.792 595.96 159.744 595.96 157.696C595.96 155.477 596.301 153.088 596.984 150.528C597.667 147.968 599.629 145.152 602.872 142.08C609.357 135.936 623.608 132.181 645.624 130.816C651.085 130.304 656.12 130.048 660.728 130.048C665.336 130.048 669.517 130.219 673.272 130.56V88.064C672.931 87.8933 672.931 87.1253 673.272 85.76C673.613 84.224 673.272 82.3466 672.248 80.128C671.395 77.7386 670.2 75.4346 668.664 73.216C667.128 70.9973 664.397 69.12 660.472 67.584C656.547 65.8773 651.427 65.024 645.112 65.024C638.797 65.024 631.373 66.2186 622.84 68.608C614.477 70.8266 608.333 73.0453 604.408 75.264L603.384 73.472C618.573 66.4746 634.019 62.976 649.72 62.976C667.299 62.976 678.904 66.1333 684.536 72.448C688.973 77.3973 691.192 82.6026 691.192 88.064V173.824C691.192 178.773 692.131 182.613 694.008 185.344C696.056 187.904 698.104 189.269 700.152 189.44L702.968 189.952H710.904V192H702.968ZM637.176 190.976C646.221 190.976 654.328 187.904 661.496 181.76C668.835 175.445 672.76 169.387 673.272 163.584V132.608C668.664 132.267 663.971 132.096 659.192 132.096C654.584 132.096 649.976 132.352 645.368 132.864C632.397 134.4 623.949 137.301 620.024 141.568C616.099 145.835 614.136 151.723 614.136 159.232C614.136 160.597 614.221 162.133 614.392 163.84C615.928 181.931 623.523 190.976 637.176 190.976ZM831.23 192C824.233 192 818.857 190.464 815.102 187.392C811.518 184.32 809.641 181.248 809.47 178.176L809.214 173.824V93.44C809.214 79.9573 805.715 71.3386 798.718 67.584C795.134 65.8773 790.697 65.024 785.406 65.024C774.483 65.024 764.67 69.376 755.966 78.08C747.262 86.6133 742.91 94.2933 742.91 101.12V192H724.99V64H742.91V93.184C745.811 85.8453 751.187 79.0186 759.038 72.704C766.889 66.2186 775.507 62.976 784.894 62.976C794.281 62.976 801.875 63.9146 807.678 65.792C813.651 67.4986 818.003 69.9733 820.734 73.216C825.001 78.5066 827.134 85.3333 827.134 93.696V173.824C827.134 178.773 828.073 182.613 829.95 185.344C831.998 187.904 834.046 189.269 836.094 189.44L838.91 189.952H846.846V192H831.23ZM857.24 132.608C857.24 110.421 862.616 93.2693 873.368 81.152C884.12 69.0346 900.248 62.976 921.752 62.976C931.821 62.976 941.976 65.536 952.216 70.656V0.255966H970.136V173.824C970.136 178.773 971.075 182.613 972.952 185.344C975 187.904 977.048 189.269 979.096 189.44L981.912 189.952H989.848V192H974.232C967.235 192 961.859 190.464 958.104 187.392C954.52 184.32 952.643 181.248 952.472 178.176L952.216 173.824V169.728C948.973 175.701 943.597 180.992 936.088 185.6C928.579 190.208 919.704 192.512 909.464 192.512C874.648 191.659 857.24 171.691 857.24 132.608ZM909.72 190.464C921.155 190.464 930.968 187.392 939.16 181.248C947.352 175.104 951.704 169.045 952.216 163.072V72.96C940.099 67.6693 929.688 65.024 920.984 65.024C905.795 65.024 894.36 70.9973 886.68 82.944C879 94.72 875.16 111.275 875.16 132.608C875.16 171.179 886.68 190.464 909.72 190.464Z"
        fill="white" />
</svg>